<?xml version="1.0" encoding="UTF-8"?>
<svg version="1.1" xmlns="http://www.w3.org/2000/svg" width="1255" height="427">
<path d="M0 0 C17.66542983 -0.84568547 33.06541127 4.86790279 46.41015625 16.5078125 C61.11674996 30.65985893 71.2736977 49.77304205 72.09980583 70.50468254 C72.14851173 73.52220592 72.1662253 76.53848644 72.17358398 79.55639648 C72.180271 80.70214645 72.18695801 81.84789642 72.19384766 83.02836609 C72.20786514 85.51042572 72.21976961 87.99249799 72.22979546 90.47457695 C72.24627973 94.41555714 72.26952376 98.35644481 72.29469299 102.29737854 C72.36556587 113.50085519 72.42538855 124.70437672 72.47680664 135.90795898 C72.50531608 142.10379913 72.54080893 148.29956256 72.58346039 154.49532181 C72.60561534 157.76314385 72.62307414 161.03088348 72.63390923 164.29876518 C72.22153124 199.81750733 72.22153124 199.81750733 87.65625 230.90625 C89.35637277 232.47806162 91.05475068 233.74551269 93 235 C93.69351562 235.44859375 94.38703125 235.8971875 95.1015625 236.359375 C112.85982843 246.45604794 135.8918394 244.33934122 154.87109375 239.2265625 C167.40667979 234.85415009 176.60972842 225.75706576 182.4609375 214.0859375 C187.23344755 203.4098601 188.29779566 193.02175832 188.27124023 181.42285156 C188.27646698 180.21638977 188.28169373 179.00992798 188.28707886 177.76690674 C188.29990868 174.48976595 188.30436553 171.21273548 188.30592227 167.93557453 C188.31043579 164.4805898 188.32846255 161.02568038 188.34571838 157.57073975 C188.39462293 147.31307475 188.42570421 137.05536591 188.44702148 126.79760742 C188.46362657 118.81902813 188.48666242 110.84059078 188.53004223 102.86210608 C188.54808787 99.43616333 188.56045597 96.01041362 188.55874443 92.58441925 C188.56017618 64.29971564 191.77372565 40.06906463 212.23828125 18.5703125 C225.46695449 6.258478 240.92562362 -0.32326388 258.9349823 -0.26742554 C260.55468893 -0.27422221 260.55468893 -0.27422221 262.2071169 -0.28115618 C265.81414721 -0.29378492 269.42102624 -0.29218077 273.02807617 -0.29052734 C275.61896966 -0.29651357 278.20986137 -0.30331934 280.80075073 -0.31088257 C287.10196672 -0.32745874 293.40314528 -0.3329906 299.70438125 -0.33410732 C304.82994255 -0.33505951 309.95549156 -0.33917831 315.08104897 -0.34550858 C329.63238143 -0.36311261 344.18368445 -0.37234889 358.73502763 -0.37084763 C359.51864283 -0.37076772 360.30225803 -0.3706878 361.10961914 -0.37060547 C361.89419801 -0.37052371 362.67877687 -0.37044195 363.48713086 -0.37035771 C376.19431518 -0.36954529 388.90138083 -0.38867396 401.60853084 -0.4168822 C414.67518871 -0.44565816 427.74178879 -0.45941987 440.80847913 -0.45769465 C448.13674103 -0.45703232 455.46487856 -0.46245531 462.7931118 -0.48405075 C469.68868038 -0.50424185 476.58398293 -0.5035408 483.47956467 -0.48901749 C486.00421724 -0.48693123 488.52888632 -0.49161921 491.05351067 -0.5037384 C513.66565043 -0.60521758 531.05936492 2.68772676 548 19 C563.87925652 36.88318825 568.66993751 56.89160845 568.45410156 80.08618164 C568.45296968 81.822657 568.45361358 83.55913426 568.45587158 85.29560852 C568.45700636 89.95165148 568.43370039 94.60727146 568.40557575 99.26321721 C568.38035304 104.15050746 568.37820381 109.03781034 568.37347412 113.92515564 C568.36110508 123.15408279 568.32836676 132.38281751 568.28807616 141.61166042 C568.23474999 154.10090895 568.21336385 166.59021113 568.19006729 179.07954502 C568.15260011 198.71984046 568.07286919 218.35973007 568 238 C608.26 238 648.52 238 690 238 C688.64789229 256.92950792 684.56332017 271.61764405 670.51171875 284.9296875 C658.13778347 295.12904318 645.73091876 297.46813673 630.07348633 297.34057617 C628.58031329 297.33965521 627.08713894 297.34006098 625.59396648 297.34167194 C621.6268795 297.34234399 617.66006883 297.32506783 613.69304657 297.30384064 C609.95856438 297.28664428 606.22414643 297.28594527 602.48962402 297.28381348 C591.59721333 297.2681263 580.70485309 297.22624249 569.8125 297.1875 C545.454375 297.125625 521.09625 297.06375 496 297 C496 218.13 496 139.26 496 58 C469.6 58 443.2 58 416 58 C416.03480469 70.53097656 416.06960938 83.06195313 416.10546875 95.97265625 C416.12080261 103.92513207 416.13536932 111.87759714 416.14648438 119.83007812 C416.1642573 132.44445471 416.18510531 145.058771 416.22631836 157.6730957 C416.25632455 166.86168845 416.27559953 176.05023208 416.28226548 185.23887247 C416.28615881 190.09916578 416.29523742 194.95931866 416.31719017 199.81956673 C416.33773302 204.40533974 416.34379829 208.99091607 416.33932304 213.57673073 C416.34014036 215.24911319 416.34599905 216.92150306 416.35761642 218.59384537 C416.51683899 242.72202336 410.34822775 262.37873171 393.88671875 280.30078125 C379.68105468 294.07840271 363.36908743 297 344 297 C344 218.13 344 139.26 344 58 C316.61 58 289.22 58 261 58 C261.02320313 67.24773437 261.04640625 76.49546875 261.0703125 86.0234375 C261.08054165 91.91145947 261.09025354 97.79947492 261.09765625 103.6875 C261.10947934 113.01597314 261.12330519 122.3444099 261.15087891 131.67285156 C261.17095948 138.46959801 261.1837508 145.26631467 261.18817699 152.06308997 C261.19075984 155.65416191 261.19672858 159.24514872 261.21146011 162.83619308 C261.36347595 201.45979733 256.83546445 235.78033552 231 266 C230.12601563 267.02867187 230.12601563 267.02867187 229.234375 268.078125 C206.35676439 292.80443142 168.30066089 301.65413913 136 303 C97.92777193 304.25465297 62.19508603 296.35745194 32.7578125 271.07421875 C15.95347413 255.31593357 6.26366469 232.56711915 2.3125 210.25 C2.19277832 209.58411865 2.07305664 208.9182373 1.94970703 208.23217773 C-0.33831674 194.00757712 -0.20414618 179.31114475 -0.5625 164.9375 C-0.60586774 163.28059234 -0.6494865 161.62369123 -0.69335938 159.96679688 C-0.79844941 155.9779337 -0.90020283 151.98899896 -1 148 C-1.49290527 148.99104736 -1.98581055 149.98209473 -2.49365234 151.00317383 C-4.37394782 154.78226243 -6.25715265 158.55989561 -8.14111328 162.3371582 C-8.94655955 163.95299114 -9.75128024 165.56918602 -10.55517578 167.18579102 C-15.31069428 176.74754558 -20.15476167 186.25263416 -25.15104675 195.69090271 C-29.76558929 204.4194667 -34.24722888 213.21491894 -38.72879028 222.01229858 C-41.23493279 226.93057508 -43.74660962 231.84602462 -46.2578125 236.76171875 C-46.7518306 237.72888321 -47.24584869 238.69604767 -47.75483704 239.69252014 C-55.72854079 255.30113889 -55.72854079 255.30113889 -59.63394165 262.88311768 C-60.52740035 264.61929407 -61.41745691 266.35721996 -62.30737305 268.09521484 C-73.49121716 289.76777694 -73.49121716 289.76777694 -84.4375 295.9375 C-93.32232428 298.75249383 -105.46041858 298.41084018 -113.86328125 294.31640625 C-126.56910534 286.48850365 -131.66401868 272.8991794 -137.875 259.9375 C-138.62451754 258.38257985 -139.37452695 256.82789671 -140.125 255.2734375 C-141.66722368 252.07770705 -143.20711145 248.88086794 -144.74511719 245.68310547 C-147.82236705 239.2877589 -150.92149776 232.90305738 -154.02059937 226.51828003 C-155.33757443 223.80435032 -156.65319026 221.0897626 -157.96885681 218.37519836 C-161.06078983 211.9960289 -164.15590236 205.61841085 -167.25390625 199.2421875 C-167.61422943 198.50055359 -167.97455261 197.75891968 -168.34579468 196.99481201 C-171.34513953 190.81838328 -171.34513953 190.81838328 -174.35140991 184.64532566 C-175.01124433 183.28269809 -175.66389208 181.91655382 -176.30741882 180.54614925 C-178.58784861 175.7343086 -181.0614125 171.08518693 -183.68103027 166.44874573 C-194.03178065 147.71206902 -197.1611281 132.43436199 -196.52090907 111.19250226 C-196.42468298 107.4361688 -196.41814255 103.67947967 -196.40052795 99.92210388 C-196.35459839 92.86299347 -196.2325116 85.80752647 -196.08028561 78.74999422 C-195.91039413 70.69190936 -195.82960511 62.63361462 -195.75485408 54.57417405 C-195.5996464 38.04734408 -195.33724337 21.52414235 -195 5 C-194.34 5 -193.68 5 -193 5 C-192.5447142 5.91390251 -192.5447142 5.91390251 -192.08023071 6.8462677 C-189.17166622 12.68371708 -186.26100736 18.52011719 -183.34818459 24.355443 C-181.85195981 27.35303705 -180.35668683 30.3510965 -178.86279297 33.34985352 C-172.87492476 45.3683964 -166.8634492 57.3647037 -160.56533813 69.22407532 C-155.44104665 78.89572482 -150.61259029 88.71555035 -145.75 98.52050781 C-141.27386212 107.53922625 -136.75641504 116.52652099 -132.0390625 125.421875 C-126.63756969 135.60886261 -121.49984619 145.92175157 -116.375 156.25 C-110.4154213 168.25978098 -104.39696622 180.21623354 -98 192 C-91.26728654 179.29225621 -84.65782895 166.5262673 -78.13262939 153.71081543 C-75.50775248 148.55585089 -72.87853817 143.40309832 -70.25 138.25 C-69.45645615 136.69391022 -69.45645615 136.69391022 -68.6468811 135.10638428 C-63.65251656 125.31428599 -58.64242211 115.53030037 -53.625 105.75 C-53.01191483 104.55476715 -53.01191483 104.55476715 -52.38644409 103.33538818 C-48.11828834 95.01519118 -43.84576529 86.697253 -39.56640625 78.3828125 C-39.20415451 77.67897934 -38.84190277 76.97514618 -38.46867371 76.24998474 C-37.92597588 75.19557945 -37.92597588 75.19557945 -37.37231445 74.11987305 C-36.6440427 72.7049155 -35.91577122 71.28995782 -35.1875 69.875 C-34.83295746 69.18620758 -34.47841492 68.49741516 -34.11312866 67.78775024 C-27.19738706 54.34986813 -20.31454799 40.89521861 -13.4375 27.4375 C-12.92174408 26.42822449 -12.40598816 25.41894897 -11.87460327 24.37908936 C-10.41490743 21.52235586 -8.95542387 18.66551409 -7.49609375 15.80859375 C-7.05533508 14.94577286 -6.61457642 14.08295197 -6.16046143 13.19398499 C-5.75744812 12.40479172 -5.35443481 11.61559845 -4.93920898 10.80249023 C-4.58712875 10.11307846 -4.23504852 9.42366669 -3.87229919 8.71336365 C-3.24336882 7.47802325 -2.6199386 6.23987719 -2 5 C-1.34 5 -0.68 5 0 5 C0 3.35 0 1.7 0 0 Z M0 140 C0 141.98 0 143.96 0 146 C0.33 146 0.66 146 1 146 C1 144.02 1 142.04 1 140 C0.67 140 0.34 140 0 140 Z " fill="#A09083" transform="translate(532,38)"/>
<path d="M0 0 C31.88203881 -0.0882717 63.76395849 -0.16209366 95.64608283 -0.20426132 C99.4146902 -0.20926382 103.18329731 -0.21444114 106.9519043 -0.21972656 C107.70212918 -0.2207758 108.45235407 -0.22182505 109.22531305 -0.22290608 C121.35424132 -0.2402856 133.48309334 -0.27180968 145.61197647 -0.30861118 C158.06816117 -0.34608905 170.52430609 -0.36825028 182.98054487 -0.37635398 C190.65950291 -0.38182761 198.33824538 -0.39908129 206.01713703 -0.43166587 C211.9169235 -0.45541746 217.81660084 -0.45780263 223.71643639 -0.45243073 C226.12821271 -0.45352726 228.53999753 -0.46143156 230.95172501 -0.4768219 C253.18964449 -0.61171992 270.36670995 2.98367175 287 19 C302.87925652 36.88318825 307.66993751 56.89160845 307.45410156 80.08618164 C307.45296968 81.822657 307.45361358 83.55913426 307.45587158 85.29560852 C307.45700636 89.95165148 307.43370039 94.60727146 307.40557575 99.26321721 C307.38035304 104.15050746 307.37820381 109.03781034 307.37347412 113.92515564 C307.36110508 123.15408279 307.32836676 132.38281751 307.28807616 141.61166042 C307.23474999 154.10090895 307.21336385 166.59021113 307.19006729 179.07954502 C307.15260011 198.71984046 307.07286919 218.35973007 307 238 C347.26 238 387.52 238 429 238 C427.64789229 256.92950792 423.56332017 271.61764405 409.51171875 284.9296875 C397.13778347 295.12904318 384.73091876 297.46813673 369.07348633 297.34057617 C367.58031329 297.33965521 366.08713894 297.34006098 364.59396648 297.34167194 C360.6268795 297.34234399 356.66006883 297.32506783 352.69304657 297.30384064 C348.95856438 297.28664428 345.22414643 297.28594527 341.48962402 297.28381348 C330.59721333 297.2681263 319.70485309 297.22624249 308.8125 297.1875 C272.2753125 297.0946875 272.2753125 297.0946875 235 297 C235 218.13 235 139.26 235 58 C208.6 58 182.2 58 155 58 C155.03480469 70.53097656 155.06960938 83.06195313 155.10546875 95.97265625 C155.12080261 103.92513207 155.13536932 111.87759714 155.14648438 119.83007812 C155.1642573 132.44445471 155.18510531 145.058771 155.22631836 157.6730957 C155.25632455 166.86168845 155.27559953 176.05023208 155.28226548 185.23887247 C155.28615881 190.09916578 155.29523742 194.95931866 155.31719017 199.81956673 C155.33773302 204.40533974 155.34379829 208.99091607 155.33932304 213.57673073 C155.34014036 215.24911319 155.34599905 216.92150306 155.35761642 218.59384537 C155.51683899 242.72202336 149.34822775 262.37873171 132.88671875 280.30078125 C118.68105468 294.07840271 102.36908743 297 83 297 C83 218.13 83 139.26 83 58 C55.61 58 28.22 58 0 58 C0 38.86 0 19.72 0 0 Z " fill="#8C6D40" transform="translate(793,38)"/>
<path d="M0 0 C7.76602237 -0.04223215 15.53161568 -0.08226729 23.2976532 -0.10350037 C26.91609742 -0.11395228 30.5344441 -0.12785695 34.15283203 -0.15087891 C69.7181131 -0.37097339 105.61467301 1.69889272 134 26 C134.79921875 26.65484375 135.5984375 27.3096875 136.421875 27.984375 C153.57353925 42.57926942 163.99650542 62.95970878 168 85 C168.14695312 83.69289063 168.29390625 82.38578125 168.4453125 81.0390625 C171.54026772 55.60629191 179.96495568 33.14228391 200 16 C203.54699835 13.43976059 207.21137602 11.18327484 211 9 C211.76828125 8.5359375 212.5365625 8.071875 213.328125 7.59375 C221.26245192 3.16779893 231.87183037 0 241 0 C241.0685548 29.93705303 241.12158927 59.87410341 241.15319599 89.81121812 C241.15694775 93.35192874 241.16083075 96.89263921 241.16479492 100.43334961 C241.16558185 101.13819065 241.16636878 101.8430317 241.16717956 102.56923156 C241.18020531 113.95637526 241.20384341 125.34347316 241.23145839 136.73058975 C241.25959163 148.42967771 241.27619293 160.12874181 241.28226548 171.8278622 C241.28616677 178.39282558 241.29529704 184.95768535 241.31719017 191.52261543 C241.33765746 197.71052951 241.34381315 203.89829796 241.33932304 210.08624268 C241.34014368 212.34881826 241.34604787 214.61139907 241.35761642 216.87394524 C241.47381664 240.78700651 238.45487934 262.88684287 221.4375 281.1875 C209.95045008 292.11844463 194.86536249 298.35680963 179 299 C177.576875 299.07734375 177.576875 299.07734375 176.125 299.15625 C151.87931058 299.86935851 128.30217453 289.57689968 109.71728516 274.40087891 C108.34604753 273.28228898 106.96281961 272.17840272 105.57568359 271.07958984 C98.7693353 265.62994077 92.51035243 259.81496981 86.375 253.625 C85.4984375 252.75617188 84.621875 251.88734375 83.71875 250.9921875 C77.71658476 244.97221168 72.30246896 238.63796413 67 232 C66.07114237 230.89573836 65.13835123 229.79475536 64.19921875 228.69921875 C49.16167541 210.66819866 36.26880632 190.23899081 24.95654297 169.70263672 C24.08657611 168.15410459 23.15755364 166.6391251 22.22265625 165.12890625 C21 163 21 163 21 161 C25.62 161 30.24 161 35 161 C35 160.67 35 160.34 35 160 C36.28132813 159.95101562 37.56265625 159.90203125 38.8828125 159.8515625 C59.28817189 159.00455505 78.76744773 157.96737283 93.6875 142.3125 C103.24439972 130.83549257 104.9980794 116.45655624 104 102 C102.17123067 88.64141157 97.73906611 76.7657286 86.8203125 68.3125 C74.06431364 59.94791058 59.4148373 58.88384693 44.62890625 58.68359375 C43.49578003 58.66494263 42.36265381 58.6462915 41.19519043 58.6270752 C36.98436882 58.55905651 32.77342579 58.49873027 28.5625 58.4375 C19.136875 58.293125 9.71125 58.14875 0 58 C0 38.86 0 19.72 0 0 Z M168 126 C167.85304688 126.969375 167.70609375 127.93875 167.5546875 128.9375 C163.52072763 153.71219088 152.10527665 176.38915689 132 192 C128.6357317 194.28644227 125.17013032 196.36501356 121.65234375 198.40625 C118.96060354 199.87812615 118.96060354 199.87812615 117 202 C131.53959928 216.13775106 149.63505585 229.54501862 169 236 C169 199.7 169 163.4 169 126 C168.67 126 168.34 126 168 126 Z M195 242 C195 242.33 195 242.66 195 243 C199.62 243 204.24 243 209 243 C209 242.67 209 242.34 209 242 C204.38 242 199.76 242 195 242 Z " fill="#966829" transform="translate(95,37)"/>
<path d="M0 0 C21.55014142 0 36.5138835 4.08829435 52 19 C67.87925652 36.88318825 72.66993751 56.89160845 72.45410156 80.08618164 C72.45296968 81.822657 72.45361358 83.55913426 72.45587158 85.29560852 C72.45700636 89.95165148 72.43370039 94.60727146 72.40557575 99.26321721 C72.38035304 104.15050746 72.37820381 109.03781034 72.37347412 113.92515564 C72.36110508 123.15408279 72.32836676 132.38281751 72.28807616 141.61166042 C72.23474999 154.10090895 72.21336385 166.59021113 72.19006729 179.07954502 C72.15260011 198.71984046 72.07286919 218.35973007 72 238 C112.26 238 152.52 238 194 238 C192.64789229 256.92950792 188.56332017 271.61764405 174.51171875 284.9296875 C162.13778347 295.12904318 149.73091876 297.46813673 134.07348633 297.34057617 C132.58031329 297.33965521 131.08713894 297.34006098 129.59396648 297.34167194 C125.6268795 297.34234399 121.66006883 297.32506783 117.69304657 297.30384064 C113.95856438 297.28664428 110.22414643 297.28594527 106.48962402 297.28381348 C95.59721333 297.2681263 84.70485309 297.22624249 73.8125 297.1875 C49.454375 297.125625 25.09625 297.06375 0 297 C0 198.99 0 100.98 0 0 Z " fill="#6B4D33" transform="translate(1028,38)"/>
<path d="M0 0 C0.66 0 1.32 0 2 0 C2.4552858 0.91390251 2.4552858 0.91390251 2.91976929 1.8462677 C5.82833378 7.68371708 8.73899264 13.52011719 11.65181541 19.355443 C13.14804019 22.35303705 14.64331317 25.3510965 16.13720703 28.34985352 C22.12507524 40.3683964 28.1365508 52.3647037 34.43466187 64.22407532 C39.55895335 73.89572482 44.38740971 83.71555035 49.25 93.52050781 C53.72613788 102.53922625 58.24358496 111.52652099 62.9609375 120.421875 C68.36243031 130.60886261 73.50015381 140.92175157 78.625 151.25 C84.5845787 163.25978098 90.60303378 175.21623354 97 187 C103.73271346 174.29225621 110.34217105 161.5262673 116.86737061 148.71081543 C119.49224752 143.55585089 122.12146183 138.40309832 124.75 133.25 C125.54354385 131.69391022 125.54354385 131.69391022 126.3531189 130.10638428 C131.34748344 120.31428599 136.35757789 110.53030037 141.375 100.75 C141.98808517 99.55476715 141.98808517 99.55476715 142.61355591 98.33538818 C146.88171177 90.01519096 151.15435318 81.69731414 155.43359375 73.3828125 C155.79575485 72.67893402 156.15791595 71.97505554 156.53105164 71.24984741 C158.34165034 67.73118095 160.15372043 64.21328641 161.96850586 60.69677734 C165.86016844 53.14890029 169.72016452 45.58617043 173.54103088 38.00216675 C175.64851047 33.8205009 177.76306044 29.64242614 179.8777771 25.4644165 C180.91363393 23.41264616 181.94591175 21.35906482 182.97451782 19.3036499 C184.41042199 16.43488108 185.85821063 13.57240663 187.30859375 10.7109375 C187.73902985 9.84295532 188.16946594 8.97497314 188.61294556 8.08068848 C189.21723892 6.89678528 189.21723892 6.89678528 189.83374023 5.68896484 C190.18137924 4.99733246 190.52901825 4.30570007 190.88719177 3.59310913 C192 2 192 2 195 1 C195.23469418 19.05570684 195.41047232 37.11101222 195.51812172 55.16792011 C195.5694576 63.55411907 195.63930951 71.93936466 195.75439453 80.32495117 C195.85477787 87.64286527 195.91874754 94.96008833 195.94088495 102.27867192 C195.95380521 106.14615422 195.98366352 110.01166153 196.05730057 113.8785038 C196.36587175 130.74628997 196.04619089 144.77372733 186.2093277 159.18726921 C184.54215999 161.6862827 183.22188295 164.31703035 181.8996582 167.01123047 C181.251791 168.28182816 181.251791 168.28182816 180.59083557 169.57809448 C180.16511765 170.41599518 179.73939972 171.25389587 179.30078125 172.1171875 C178.82305771 173.05458771 178.34533417 173.99198792 177.85313416 174.95779419 C176.85077108 176.92473489 175.84890501 178.89192896 174.84753418 180.859375 C172.20482992 186.0510542 169.55768043 191.24046495 166.91015625 196.4296875 C166.39194305 197.44544861 165.87372986 198.46120972 165.33981323 199.50775146 C160.7741391 208.45209217 156.17365486 217.3777474 151.54052734 226.28735352 C148.39924022 232.33497041 145.28625294 238.39520136 142.20755005 244.47488403 C140.40121292 248.04144686 138.58951018 251.60527529 136.7779541 255.16918945 C135.89568283 256.90898565 135.01613161 258.65016434 134.13952637 260.39282227 C132.91112393 262.83446022 131.67326066 265.27109756 130.43359375 267.70703125 C130.07476608 268.42663528 129.71593842 269.14623932 129.34623718 269.88764954 C126.01479186 276.39415911 122.01718753 283.03761066 116 287.375 C115.38125 287.83648437 114.7625 288.29796875 114.125 288.7734375 C105.9650031 293.48343571 95.01015663 293.28514233 85.94921875 291.34765625 C69.78460962 285.49018513 64.0051723 269.29571217 57.125 254.9375 C56.37548246 253.38257985 55.62547305 251.82789671 54.875 250.2734375 C53.33277632 247.07770705 51.79288855 243.88086794 50.25488281 240.68310547 C47.17763295 234.2877589 44.07850224 227.90305738 40.97940063 221.51828003 C39.66242557 218.80435032 38.34680974 216.0897626 37.03114319 213.37519836 C33.93921017 206.9960289 30.84409764 200.61841085 27.74609375 194.2421875 C27.38577057 193.50055359 27.02544739 192.75891968 26.65420532 191.99481201 C23.65486047 185.81838328 23.65486047 185.81838328 20.64859009 179.64532566 C19.98875567 178.28269809 19.33610792 176.91655382 18.69258118 175.54614925 C16.41215139 170.7343086 13.9385875 166.08518693 11.31896973 161.44874573 C0.96821935 142.71206902 -2.1611281 127.43436199 -1.52090907 106.19250226 C-1.42468298 102.4361688 -1.41814255 98.67947967 -1.40052795 94.92210388 C-1.35459839 87.86299347 -1.2325116 80.80752647 -1.08028561 73.74999422 C-0.91039413 65.69190936 -0.82960511 57.63361462 -0.75485408 49.57417405 C-0.5996464 33.04734408 -0.33724337 16.52414235 0 0 Z " fill="#B19D61" transform="translate(337,43)"/>
<path d="M0 0 C20.79 0 41.58 0 63 0 C63.60477215 31.60422226 63.60477215 31.60422226 63.75976562 42.484375 C63.77045232 43.2343853 63.78113901 43.9843956 63.79214954 44.75713348 C64.22575713 75.8857821 64.22426601 107.01917232 64.23882818 138.15029144 C64.24359633 148.16415564 64.26139328 158.17788799 64.2898953 168.19171238 C64.31154354 176.07931818 64.32159915 183.96688658 64.32293582 191.85452175 C64.32397309 196.50984918 64.32965874 201.16504797 64.34775543 205.82034302 C64.36431272 210.15497297 64.36635502 214.48937755 64.35761642 218.82402802 C64.35685267 220.39851237 64.36110004 221.97300952 64.37107468 223.54746246 C64.49908473 245.02192925 58.94230878 264.88835711 44.12890625 281.02734375 C32.1642978 292.1138158 18.24662389 298.12741918 2 299 C1.34 298.67 0.68 298.34 0 298 C0 199.66 0 101.32 0 0 Z " fill="#976829" transform="translate(31,37)"/>
<path d="M0 0 C0 76.89 0 153.78 0 233 C-24.87309764 241.29103255 -46.24609842 245.05627252 -71 235 C-71.88694436 216.9760044 -72.17640499 198.97691159 -72.20018864 180.93355823 C-72.20317105 178.77526855 -72.20728315 176.61698357 -72.21169281 174.45869637 C-72.22525062 167.6574728 -72.23498215 160.85626066 -72.2388947 154.05502456 C-72.24339295 146.28833989 -72.26107182 138.52182964 -72.2898953 130.75519794 C-72.31162768 124.683153 -72.32160456 118.61115688 -72.32293582 112.53907353 C-72.32397255 108.94058049 -72.32963804 105.34225406 -72.34775543 101.74380302 C-72.50034477 69.64853051 -67.92392897 43.94380191 -45.1875 19.8125 C-40.62726941 15.38613136 -35.48690582 12.16194573 -30 9 C-29.23171875 8.5359375 -28.4634375 8.071875 -27.671875 7.59375 C-19.73754808 3.16779893 -9.12816963 0 0 0 Z " fill="#B09B60" transform="translate(336,37)"/>
<path d="M0 0 C2.64 0 5.28 0 8 0 C8 8.58 8 17.16 8 26 C12.84666111 25.92098174 12.84666111 25.92098174 17.69287109 25.81982422 C19.46287275 25.8051883 21.23272455 25.90071486 23 26 C23.66 26.66 24.32 27.32 25 28 C25.32798584 27.18732666 25.65597168 26.37465332 25.99389648 25.53735352 C27.20882606 22.53050512 28.42602057 19.52458685 29.64477539 16.51928711 C30.17238314 15.21692306 30.69907915 13.91418927 31.22485352 12.61108398 C31.97954912 10.74106066 32.73776804 8.87246046 33.49609375 7.00390625 C33.95169678 5.87799072 34.4072998 4.7520752 34.87670898 3.59204102 C36 1 36 1 37 0 C38.99958364 -0.04080783 41.00045254 -0.04254356 43 0 C46.61238508 6.59954966 49.50309412 13.46887599 52.3125 20.4375 C52.67408203 21.32598633 53.03566406 22.21447266 53.40820312 23.12988281 C53.74400391 23.97260742 54.07980469 24.81533203 54.42578125 25.68359375 C54.72911377 26.44212646 55.03244629 27.20065918 55.3449707 27.98217773 C56 30 56 30 56 33 C53.36 33 50.72 33 48 33 C47.34 31.35 46.68 29.7 46 28 C42.04 27.67 38.08 27.34 34 27 C33.34 28.98 32.68 30.96 32 33 C21.44 33 10.88 33 0 33 C0 22.11 0 11.22 0 0 Z M40 12 C37.7986134 15.80427492 37.7986134 15.80427492 37 20 C38.98 20 40.96 20 43 20 C42.34 17.36 41.68 14.72 41 12 C40.67 12 40.34 12 40 12 Z " fill="#B7A365" transform="translate(321,362)"/>
<path d="M0 0 C3.77734375 0.5625 3.77734375 0.5625 5.28857422 2.06640625 C6.7266783 4.17734681 7.98714535 6.32275439 9.21484375 8.5625 C9.66021484 9.325625 10.10558594 10.08875 10.56445312 10.875 C11.65937086 12.75872943 12.72830299 14.65296015 13.77734375 16.5625 C17.33255945 11.33633293 20.71712916 6.09442638 23.77734375 0.5625 C26.41734375 0.5625 29.05734375 0.5625 31.77734375 0.5625 C31.77734375 11.4525 31.77734375 22.3425 31.77734375 33.5625 C29.46734375 33.5625 27.15734375 33.5625 24.77734375 33.5625 C24.44734375 27.6225 24.11734375 21.6825 23.77734375 15.5625 C22.74609375 17.5425 21.71484375 19.5225 20.65234375 21.5625 C18.89453125 24.9375 18.89453125 24.9375 16.77734375 27.5625 C13.74609375 28.25 13.74609375 28.25 10.77734375 27.5625 C8.13012704 24.51220914 6.67010299 21.1677557 4.77734375 17.5625 C4.44734375 22.8425 4.11734375 28.1225 3.77734375 33.5625 C1.46734375 33.5625 -0.84265625 33.5625 -3.22265625 33.5625 C-5.13115573 31.65400052 -4.35325258 28.24771226 -4.35546875 25.71875 C-4.35642548 25.03445923 -4.3573822 24.35016846 -4.35836792 23.6451416 C-4.35904955 22.19588123 -4.35719648 20.74661782 -4.35302734 19.29736328 C-4.34767877 17.07187072 -4.35297285 14.84657999 -4.359375 12.62109375 C-4.35871422 11.21614539 -4.35743305 9.81119715 -4.35546875 8.40625 C-4.35434082 7.11912109 -4.35321289 5.83199219 -4.35205078 4.50585938 C-4.17140067 0.39658061 -4.1001123 0.71565596 0 0 Z " fill="#B7A365" transform="translate(154.22265625,361.4375)"/>
<path d="M0 0 C8 0 8 0 9.91796875 1.56054688 C10.33691406 2.27275391 10.75585938 2.98496094 11.1875 3.71875 C11.65800781 4.48574219 12.12851563 5.25273437 12.61328125 6.04296875 C13.07089844 6.85378906 13.52851562 7.66460937 14 8.5 C14.48855469 9.31082031 14.97710938 10.12164062 15.48046875 10.95703125 C16.68066064 12.95735107 17.8514597 14.96972633 19 17 C19.06058594 15.85660156 19.12117188 14.71320313 19.18359375 13.53515625 C19.26798428 12.04425695 19.35263302 10.55337225 19.4375 9.0625 C19.47681641 8.30775391 19.51613281 7.55300781 19.55664062 6.77539062 C19.88671875 1.11328125 19.88671875 1.11328125 21 0 C23.31 0 25.62 0 28 0 C28 10.89 28 21.78 28 33 C20 33 20 33 18.08203125 31.43945312 C17.66308594 30.72724609 17.24414062 30.01503906 16.8125 29.28125 C16.34199219 28.51425781 15.87148437 27.74726563 15.38671875 26.95703125 C14.92910156 26.14621094 14.47148438 25.33539063 14 24.5 C13.51144531 23.68917969 13.02289062 22.87835938 12.51953125 22.04296875 C11.31933936 20.04264893 10.1485403 18.03027367 9 16 C8.93941406 17.14339844 8.87882812 18.28679687 8.81640625 19.46484375 C8.73201572 20.95574305 8.64736698 22.44662775 8.5625 23.9375 C8.50352539 25.06961914 8.50352539 25.06961914 8.44335938 26.22460938 C8.11328125 31.88671875 8.11328125 31.88671875 7 33 C4.69 33 2.38 33 0 33 C0 22.11 0 11.22 0 0 Z " fill="#B7A365" transform="translate(1114,362)"/>
<path d="M0 0 C2.44912441 2.01692598 3.73969474 3.90647868 5.125 6.75 C5.125 7.41 5.125 8.07 5.125 8.75 C2.32629973 10.14935013 0.22001208 10.00265405 -2.875 9.75 C-3.349375 9.255 -3.82375 8.76 -4.3125 8.25 C-5.93352319 6.3956135 -5.93352319 6.3956135 -9.3125 6.3125 C-12.82783968 6.50360615 -12.82783968 6.50360615 -15.3125 8.1875 C-17.63698611 11.99965721 -17.50548504 15.40045129 -16.875 19.75 C-16.09803517 22.42734485 -16.09803517 22.42734485 -13.875 23.75 C-11.1225985 24.2431386 -8.62684513 24.24877193 -5.875 23.75 C-3.865755 22.41641006 -3.865755 22.41641006 -2.875 20.75 C-5.185 20.42 -7.495 20.09 -9.875 19.75 C-9.875 17.44 -9.875 15.13 -9.875 12.75 C-4.595 12.75 0.685 12.75 6.125 12.75 C6.125 20.09464999 6.07536797 23.09171717 2.125 28.75 C-1.45299074 32.01228567 -5.60381595 32.53533827 -10.30859375 32.87890625 C-15.83363419 32.6013928 -19.58027375 30.11112247 -23.3125 26.1875 C-26.60137714 21.05685167 -26.59317508 15.66485769 -25.875 9.75 C-23.86657412 4.64143126 -20.98522544 0.97753417 -15.875 -1.25 C-10.50532754 -2.91683583 -5.1115909 -2.22243083 0 0 Z " fill="#B7A365" transform="translate(280.875,363.25)"/>
<path d="M0 0 C8 0 8 0 9.91796875 1.56054688 C10.33691406 2.27275391 10.75585938 2.98496094 11.1875 3.71875 C11.65800781 4.48574219 12.12851562 5.25273437 12.61328125 6.04296875 C13.07089844 6.85378906 13.52851563 7.66460937 14 8.5 C14.48855469 9.31082031 14.97710937 10.12164062 15.48046875 10.95703125 C16.67978929 12.95589881 17.84347031 14.97607304 19 17 C19.33 11.39 19.66 5.78 20 0 C22.64 0 25.28 0 28 0 C28 10.89 28 21.78 28 33 C20 33 20 33 17.99023438 31.34765625 C17.52939453 30.59355469 17.06855469 29.83945312 16.59375 29.0625 C16.078125 28.25039063 15.5625 27.43828125 15.03125 26.6015625 C14.5259375 25.74304688 14.020625 24.88453125 13.5 24 C12.96375 23.14148438 12.4275 22.28296875 11.875 21.3984375 C10.55770576 19.28135748 9.27535933 17.14260368 8 15 C7.67 20.94 7.34 26.88 7 33 C4.69 33 2.38 33 0 33 C0 22.11 0 11.22 0 0 Z " fill="#B7A365" transform="translate(421,362)"/>
<path d="M0 0 C8 0 8 0 10.00976562 1.65234375 C10.70102539 2.78349609 10.70102539 2.78349609 11.40625 3.9375 C11.921875 4.74960937 12.4375 5.56171875 12.96875 6.3984375 C13.4740625 7.25695312 13.979375 8.11546875 14.5 9 C15.03625 9.85851562 15.5725 10.71703125 16.125 11.6015625 C17.44229424 13.71864252 18.72464067 15.85739632 20 18 C20.33 12.06 20.66 6.12 21 0 C23.31 0 25.62 0 28 0 C28 10.89 28 21.78 28 33 C20 33 20 33 18.08203125 31.43945312 C17.66308594 30.72724609 17.24414062 30.01503906 16.8125 29.28125 C16.34199219 28.51425781 15.87148437 27.74726563 15.38671875 26.95703125 C14.92910156 26.14621094 14.47148437 25.33539063 14 24.5 C13.51144531 23.68917969 13.02289063 22.87835938 12.51953125 22.04296875 C11.31933936 20.04264893 10.1485403 18.03027367 9 16 C8.93941406 17.14339844 8.87882813 18.28679687 8.81640625 19.46484375 C8.73201572 20.95574305 8.64736698 22.44662775 8.5625 23.9375 C8.50352539 25.06961914 8.50352539 25.06961914 8.44335938 26.22460938 C8.11328125 31.88671875 8.11328125 31.88671875 7 33 C4.69 33 2.38 33 0 33 C0 22.11 0 11.22 0 0 Z " fill="#B7A365" transform="translate(223,362)"/>
<path d="M0 0 C2.6238299 2.0042267 3.95223637 3.64641825 4.93359375 6.80078125 C4.97484375 7.52265625 5.01609375 8.24453125 5.05859375 8.98828125 C1.74609375 9.67578125 1.74609375 9.67578125 -1.94140625 9.98828125 C-2.94140625 8.98828125 -3.94140625 7.98828125 -4.94140625 6.98828125 C-8.43789568 6.40430099 -11.69672745 6.34586639 -14.87890625 7.98828125 C-17.36409719 12.66628773 -17.34760186 17.98847462 -15.94140625 22.98828125 C-12.20414706 24.23403431 -8.85288168 24.47721568 -4.94140625 23.98828125 C-2.93216125 22.65469131 -2.93216125 22.65469131 -1.94140625 20.98828125 C-4.58140625 20.65828125 -7.22140625 20.32828125 -9.94140625 19.98828125 C-9.94140625 17.67828125 -9.94140625 15.36828125 -9.94140625 12.98828125 C-4.66140625 12.98828125 0.61859375 12.98828125 6.05859375 12.98828125 C6.36618026 20.67794396 6.29444315 24.45826372 0.99609375 30.23828125 C-3.21856538 32.74914201 -7.07484075 33.17106305 -11.94140625 32.98828125 C-17.84781423 31.34223312 -20.46615083 28.7923108 -23.94140625 23.98828125 C-26.14748431 19.57612513 -25.37372944 13.79057402 -24.94140625 8.98828125 C-23.92928117 6.31266346 -22.92644677 5.1434681 -20.94140625 2.98828125 C-20.48765625 2.41078125 -20.03390625 1.83328125 -19.56640625 1.23828125 C-14.0835422 -2.97930648 -6.07288862 -3.16474477 0 0 Z " fill="#B7A365" transform="translate(1007.94140625,363.01171875)"/>
<path d="M0 0 C4.05948657 3.35574346 6.74935807 6.23442965 7.640625 11.58203125 C8.19876671 17.72159003 7.17635498 22.44758724 3.234375 27.3203125 C-0.75145024 31.25913509 -4.36309737 32.53103589 -9.9375 32.7421875 C-15.5409076 32.37163958 -19.05623552 30.19745746 -22.734375 26.14453125 C-26.50180506 21.64174719 -26.75161992 17.36764386 -26.359375 11.58203125 C-24.5798296 5.61532019 -21.53983637 1.90198284 -16.359375 -1.41796875 C-10.96711127 -3.27737004 -4.90352746 -2.94698753 0 0 Z M-15.796875 7.45703125 C-18.61308172 11.28707238 -18.68210941 13.82169871 -18.359375 18.58203125 C-16.61208722 22.3100659 -16.61208722 22.3100659 -13.359375 24.58203125 C-7.70196299 25.20762848 -7.70196299 25.20762848 -2.921875 22.70703125 C-0.10566828 18.87699012 -0.03664059 16.34236379 -0.359375 11.58203125 C-2.10666278 7.8539966 -2.10666278 7.8539966 -5.359375 5.58203125 C-11.01678701 4.95643402 -11.01678701 4.95643402 -15.796875 7.45703125 Z " fill="#B7A365" transform="translate(685.359375,363.41796875)"/>
<path d="M0 0 C4.02027145 3.45930334 6.22500958 6.52860839 7.5625 11.6875 C7.77418849 17.82646612 6.79358345 22.3092002 2.9375 27.1875 C0.06855059 30.2081727 -2.0981343 31.66413605 -6.3125 32.3125 C-12.59499934 32.37409313 -17.55604436 31.72920881 -22.3125 27.3125 C-25.63614768 22.72171164 -26.98836561 18.20670629 -26.6953125 12.55078125 C-25.75520172 7.05401105 -23.6245532 3.37854322 -19.3125 -0.125 C-12.78920657 -3.52254866 -6.55981716 -3.34179365 0 0 Z M-16.3125 7.25 C-18.64448013 10.82084457 -19.05517565 12.95756019 -18.7890625 17.15234375 C-17.97120267 20.85952808 -16.45086313 22.28564048 -13.3125 24.3125 C-9.43005973 25.17355606 -6.33126962 24.93943515 -2.875 22.8125 C-0.73483374 19.38823398 -0.08816259 16.34256141 -0.3125 12.3125 C-1.66910016 9.34089965 -3.01533441 7.60966559 -5.3125 5.3125 C-10.11323273 4.76159624 -12.22439752 4.60976715 -16.3125 7.25 Z " fill="#B7A365" transform="translate(972.3125,363.6875)"/>
<path d="M0 0 C4.5307233 4.2071002 6.8029365 8.72167437 7.125 14.9375 C6.8029365 21.15332563 4.5307233 25.6678998 0 29.875 C-5.83204678 32.57502166 -10.98742879 33.1028887 -17.1875 31.375 C-21.40195768 28.81327082 -24.13944167 25.90861665 -26.375 21.4375 C-26.8664074 15.60505803 -27.20575678 10.25877447 -24.75 4.875 C-17.39949426 -2.6689401 -9.58712957 -4.43848591 0 0 Z M-16.8125 6.9375 C-18.95266626 10.36176602 -19.59933741 13.40743859 -19.375 17.4375 C-18.01839984 20.40910035 -16.67216559 22.14033441 -14.375 24.4375 C-9.57426727 24.98840376 -7.46310248 25.14023285 -3.375 22.5 C-1.04301987 18.92915543 -0.63232435 16.79243981 -0.8984375 12.59765625 C-1.71629733 8.89047192 -3.23663687 7.46435952 -6.375 5.4375 C-10.25744027 4.57644394 -13.35623038 4.81056485 -16.8125 6.9375 Z " fill="#B7A365" transform="translate(912.375,363.5625)"/>
<path d="M0 0 C8 0 8 0 9.81030273 1.45288086 C10.18098877 2.11682861 10.5516748 2.78077637 10.93359375 3.46484375 C11.56491211 4.54088867 11.56491211 4.54088867 12.20898438 5.63867188 C12.61439453 6.39728516 13.01980469 7.15589844 13.4375 7.9375 C14.29032106 9.42580619 15.14318345 10.9140887 15.99609375 12.40234375 C16.35888428 13.06741943 16.7216748 13.73249512 17.09545898 14.41772461 C17.90218561 15.98983264 17.90218561 15.98983264 19 17 C19.33 11.39 19.66 5.78 20 0 C22.31 0 24.62 0 27 0 C27 10.89 27 21.78 27 33 C20 33 20 33 17.9609375 31.09375 C17.43757813 30.2378125 16.91421875 29.381875 16.375 28.5 C15.80394531 27.59507812 15.23289062 26.69015625 14.64453125 25.7578125 C14.10183594 24.84773438 13.55914063 23.93765625 13 23 C12.02187742 21.45767069 11.04283639 19.91592311 10.0625 18.375 C9.381875 17.26125 8.70125 16.1475 8 15 C7.67 20.94 7.34 26.88 7 33 C4.69 33 2.38 33 0 33 C0 22.11 0 11.22 0 0 Z " fill="#B7A365" transform="translate(1147,362)"/>
<path d="M0 0 C8 0 8 0 9.81030273 1.45288086 C10.18098877 2.11682861 10.5516748 2.78077637 10.93359375 3.46484375 C11.56491211 4.54088867 11.56491211 4.54088867 12.20898438 5.63867188 C12.61439453 6.39728516 13.01980469 7.15589844 13.4375 7.9375 C14.29032106 9.42580619 15.14318345 10.9140887 15.99609375 12.40234375 C16.35888428 13.06741943 16.7216748 13.73249512 17.09545898 14.41772461 C17.90218561 15.98983264 17.90218561 15.98983264 19 17 C19.33 11.39 19.66 5.78 20 0 C22.31 0 24.62 0 27 0 C27 10.89 27 21.78 27 33 C20 33 20 33 17.9609375 31.09375 C17.43757812 30.2378125 16.91421875 29.381875 16.375 28.5 C15.80394531 27.59507812 15.23289062 26.69015625 14.64453125 25.7578125 C14.10183594 24.84773438 13.55914063 23.93765625 13 23 C12.02187742 21.45767069 11.04283639 19.91592311 10.0625 18.375 C9.381875 17.26125 8.70125 16.1475 8 15 C7.67 20.94 7.34 26.88 7 33 C4.69 33 2.38 33 0 33 C0 22.11 0 11.22 0 0 Z " fill="#B7A365" transform="translate(854,362)"/>
<path d="M0 0 C0.70833984 -0.02900391 1.41667969 -0.05800781 2.14648438 -0.08789062 C7.3255047 -0.150058 10.19493292 0.9208262 14.3125 4.3125 C16.88653792 8.22951422 16.30712694 11.85951425 15.796875 16.32421875 C15.3125 18.3125 15.3125 18.3125 13.3125 20.3125 C13.63798026 24.32675656 15.26224971 26.92512996 17.3125 30.3125 C17.3125 31.3025 17.3125 32.2925 17.3125 33.3125 C14.6725 33.3125 12.0325 33.3125 9.3125 33.3125 C5.3125 26.5625 5.3125 26.5625 5.3125 24.3125 C3.3325 24.3125 1.3525 24.3125 -0.6875 24.3125 C-0.6875 27.2825 -0.6875 30.2525 -0.6875 33.3125 C-3.02044775 33.35491723 -5.35452567 33.35342937 -7.6875 33.3125 C-9.59599948 31.40400052 -8.81809633 27.99771226 -8.8203125 25.46875 C-8.82126923 24.78445923 -8.82222595 24.10016846 -8.82321167 23.3951416 C-8.8238933 21.94588123 -8.82204023 20.49661782 -8.81787109 19.04736328 C-8.81252252 16.82187072 -8.8178166 14.59657999 -8.82421875 12.37109375 C-8.82355797 10.96614539 -8.8222768 9.56119715 -8.8203125 8.15625 C-8.81918457 6.86912109 -8.81805664 5.58199219 -8.81689453 4.25585938 C-8.56944393 -1.37294152 -4.62928468 0.06150511 0 0 Z M-0.6875 7.3125 C-0.6875 10.6125 -0.6875 13.9125 -0.6875 17.3125 C1.9525 16.9825 4.5925 16.6525 7.3125 16.3125 C7.6425 14.0025 7.9725 11.6925 8.3125 9.3125 C4.8772952 7.02236347 3.327169 7.13407027 -0.6875 7.3125 Z " fill="#B7A365" transform="translate(42.6875,361.6875)"/>
<path d="M0 0 C2.31 0 4.62 0 7 0 C7.33 3.96 7.66 7.92 8 12 C11.63 12 15.26 12 19 12 C19.33 8.04 19.66 4.08 20 0 C22.64 0 25.28 0 28 0 C28 10.89 28 21.78 28 33 C25.36 33 22.72 33 20 33 C20 28.71 20 24.42 20 20 C15.71 20 11.42 20 7 20 C7 24.29 7 28.58 7 33 C4.69 33 2.38 33 0 33 C0 22.11 0 11.22 0 0 Z " fill="#B7A365" transform="translate(821,362)"/>
<path d="M0 0 C16 0 16 0 21 3 C23.44818846 5.95471021 24.21430764 8.30369614 24.375 12.0625 C23.9895767 16.10944462 23.44998565 17.01740877 21 20 C21.18436508 22.76547627 22.29313749 24.57454948 23.5625 27.0625 C25 30 25 30 25 33 C22.36 33 19.72 33 17 33 C16.78085937 32.43410156 16.56171875 31.86820312 16.3359375 31.28515625 C15.36066957 29.02935359 14.40765852 27.01764387 13 25 C9.87866256 23.86521065 9.87866256 23.86521065 7 24 C7 26.97 7 29.94 7 33 C4.69 33 2.38 33 0 33 C0 22.11 0 11.22 0 0 Z M7 7 C7 10.3 7 13.6 7 17 C8.299375 16.855625 9.59875 16.71125 10.9375 16.5625 C11.66839844 16.48128906 12.39929688 16.40007812 13.15234375 16.31640625 C15.01140229 16.18113386 15.01140229 16.18113386 16 15 C16.25005386 12.04182893 16.25005386 12.04182893 16 9 C14.04366025 6.58878141 14.04366025 6.58878141 10.375 6.875 C8.704375 6.936875 8.704375 6.936875 7 7 Z " fill="#B7A365" transform="translate(525,362)"/>
<path d="M0 0 C7.59 0 15.18 0 23 0 C23 2.31 23 4.62 23 7 C18.05 7 13.1 7 8 7 C8.33 8.65 8.66 10.3 9 12 C10.15628906 11.96519531 10.15628906 11.96519531 11.3359375 11.9296875 C12.33882812 11.91164063 13.34171875 11.89359375 14.375 11.875 C15.37273438 11.85179687 16.37046875 11.82859375 17.3984375 11.8046875 C20 12 20 12 22 14 C21.67 15.98 21.34 17.96 21 20 C16.71 20 12.42 20 8 20 C8 21.98 8 23.96 8 26 C12.95 26 17.9 26 23 26 C23 28.31 23 30.62 23 33 C15.41 33 7.82 33 0 33 C0 22.11 0 11.22 0 0 Z " fill="#B7A365" transform="translate(760,362)"/>
<path d="M0 0 C7.59 0 15.18 0 23 0 C23 2.31 23 4.62 23 7 C18.05 7 13.1 7 8 7 C8.33 8.65 8.66 10.3 9 12 C10.15628906 11.96519531 10.15628906 11.96519531 11.3359375 11.9296875 C12.33882813 11.91164063 13.34171875 11.89359375 14.375 11.875 C15.37273438 11.85179687 16.37046875 11.82859375 17.3984375 11.8046875 C20 12 20 12 22 14 C21.67 15.98 21.34 17.96 21 20 C16.71 20 12.42 20 8 20 C8 21.98 8 23.96 8 26 C12.95 26 17.9 26 23 26 C23 28.31 23 30.62 23 33 C15.41 33 7.82 33 0 33 C0 22.11 0 11.22 0 0 Z " fill="#B7A365" transform="translate(498,362)"/>
<path d="M0 0 C2.62015148 2.00625125 3.94878358 3.64787579 4.9296875 6.80078125 C4.9709375 7.52265625 5.0121875 8.24453125 5.0546875 8.98828125 C1.7421875 9.67578125 1.7421875 9.67578125 -1.9453125 9.98828125 C-2.9453125 8.98828125 -3.9453125 7.98828125 -4.9453125 6.98828125 C-8.48054848 6.39782957 -11.74215712 6.2896749 -14.8828125 8.11328125 C-17.04849601 11.93507567 -17.18769874 15.01873629 -16.1328125 19.23828125 C-15.11144667 22.06804409 -15.11144667 22.06804409 -12.9453125 23.98828125 C-8.89061387 24.45843021 -8.89061387 24.45843021 -4.9453125 23.98828125 C-3.60703946 22.32557838 -2.27341465 20.65911944 -0.9453125 18.98828125 C2.8046875 19.17578125 2.8046875 19.17578125 6.0546875 19.98828125 C5.95570472 24.14555807 5.04981163 26.45765034 2.1171875 29.30078125 C-2.23296585 32.69515142 -6.51508773 33.35554283 -11.9453125 32.98828125 C-17.84121254 31.34516157 -20.51751161 28.82752957 -23.9453125 23.98828125 C-25.83580255 18.31681111 -25.70255607 12.18030211 -23.7578125 6.55078125 C-18.14208404 -1.38869692 -8.97823236 -4.66940197 0 0 Z " fill="#B7A365" transform="translate(810.9453125,363.01171875)"/>
<path d="M0 0 C2.27883092 2.48599737 2.78592508 3.93110095 3.0625 7.25 C0.7525 7.91 -1.5575 8.57 -3.9375 9.25 C-4.5975 8.26 -5.2575 7.27 -5.9375 6.25 C-9.00306598 5.51656572 -9.00306598 5.51656572 -11.9375 5.25 C-10.92761303 7.98463774 -10.38337406 9.0402683 -7.6953125 10.3046875 C-6.82648437 10.57539063 -5.95765625 10.84609375 -5.0625 11.125 C-1.50277335 12.45410199 0.02612005 13.21277401 2.75 16 C4.41680804 20.1273342 4.57449212 23.05399819 3.0625 27.25 C0.3277577 30.58296717 -2.24052159 31.51817466 -6.375 32.1875 C-11.51049283 32.55493127 -14.68925807 30.95556284 -18.75 27.875 C-20.30198283 25.75123403 -20.58901766 23.82876935 -20.9375 21.25 C-17.4725 20.755 -17.4725 20.755 -13.9375 20.25 C-13.2775 21.24 -12.6175 22.23 -11.9375 23.25 C-8.35392759 23.50015873 -8.35392759 23.50015873 -4.9375 23.25 C-4.9375 22.26 -4.9375 21.27 -4.9375 20.25 C-5.60136719 20.03085937 -6.26523437 19.81171875 -6.94921875 19.5859375 C-12.90996594 17.4452896 -16.63202191 15.75913015 -19.9375 10.25 C-20.64972525 6.37232922 -20.31261212 4.86129382 -18.25 1.5 C-12.74878869 -3.85252992 -6.4239761 -3.82704959 0 0 Z " fill="#B7A365" transform="translate(571.9375,363.75)"/>
<path d="M0 0 C1.4540625 0.0309375 1.4540625 0.0309375 2.9375 0.0625 C6.54988508 6.66204966 9.44059412 13.53137599 12.25 20.5 C12.61158203 21.38848633 12.97316406 22.27697266 13.34570312 23.19238281 C13.68150391 24.03510742 14.01730469 24.87783203 14.36328125 25.74609375 C14.81828003 26.88389282 14.81828003 26.88389282 15.2824707 28.04467773 C15.9375 30.0625 15.9375 30.0625 15.9375 33.0625 C13.2975 33.0625 10.6575 33.0625 7.9375 33.0625 C7.2775 31.4125 6.6175 29.7625 5.9375 28.0625 C1.9775 28.0625 -1.9825 28.0625 -6.0625 28.0625 C-7.0525 30.5375 -7.0525 30.5375 -8.0625 33.0625 C-10.7025 33.0625 -13.3425 33.0625 -16.0625 33.0625 C-15.39766497 29.01902595 -14.14299658 25.4917775 -12.59375 21.703125 C-11.86091797 19.90681641 -11.86091797 19.90681641 -11.11328125 18.07421875 C-10.85885254 17.45724121 -10.60442383 16.84026367 -10.34228516 16.20458984 C-9.56003665 14.30652287 -8.78538382 12.40548581 -8.01171875 10.50390625 C-3.73922283 0.07631067 -3.73922283 0.07631067 0 0 Z M-0.0625 12.0625 C-2.2638866 15.86677492 -2.2638866 15.86677492 -3.0625 20.0625 C-1.0825 20.0625 0.8975 20.0625 2.9375 20.0625 C2.2775 17.4225 1.6175 14.7825 0.9375 12.0625 C0.6075 12.0625 0.2775 12.0625 -0.0625 12.0625 Z " fill="#B7A365" transform="translate(1193.0625,361.9375)"/>
<path d="M0 0 C2.31 0 4.62 0 7 0 C8.85594207 4.37634785 10.70723236 8.75462235 12.55419922 13.13476562 C13.18345026 14.62521672 13.81397934 16.1151289 14.44580078 17.60449219 C15.35263534 19.74274259 16.25488789 21.88287552 17.15625 24.0234375 C17.44060913 24.69120209 17.72496826 25.35896667 18.01794434 26.04696655 C20 30.77225659 20 30.77225659 20 33 C18.72125 33.061875 17.4425 33.12375 16.125 33.1875 C15.04605469 33.23970703 15.04605469 33.23970703 13.9453125 33.29296875 C13.30335938 33.19628906 12.66140625 33.09960938 12 33 C10 30 10 30 10 27 C5.71 27 1.42 27 -3 27 C-3.33 28.98 -3.66 30.96 -4 33 C-6.64 33 -9.28 33 -12 33 C-11.40405108 28.4992514 -10.23171075 24.69723284 -8.49609375 20.5078125 C-7.75649414 18.70957031 -7.75649414 18.70957031 -7.00195312 16.875 C-6.48060478 15.62494326 -5.95911869 14.37494396 -5.4375 13.125 C-4.91153536 11.85179948 -4.3861391 10.578364 -3.86132812 9.3046875 C-2.57978638 6.20076989 -1.29251196 3.09936178 0 0 Z M3 11 C2.01 13.97 1.02 16.94 0 20 C2.31 20 4.62 20 7 20 C6.01 17.03 5.02 14.06 4 11 C3.67 11 3.34 11 3 11 Z " fill="#B7A365" transform="translate(201,362)"/>
<path d="M0 0 C1.4540625 0.0309375 1.4540625 0.0309375 2.9375 0.0625 C6.54988508 6.66204966 9.44059412 13.53137599 12.25 20.5 C12.61158203 21.38848633 12.97316406 22.27697266 13.34570312 23.19238281 C13.68150391 24.03510742 14.01730469 24.87783203 14.36328125 25.74609375 C14.81828003 26.88389282 14.81828003 26.88389282 15.2824707 28.04467773 C15.9375 30.0625 15.9375 30.0625 15.9375 33.0625 C13.2975 33.0625 10.6575 33.0625 7.9375 33.0625 C7.2775 31.4125 6.6175 29.7625 5.9375 28.0625 C1.9775 28.0625 -1.9825 28.0625 -6.0625 28.0625 C-7.0525 30.5375 -7.0525 30.5375 -8.0625 33.0625 C-10.7025 33.0625 -13.3425 33.0625 -16.0625 33.0625 C-15.39766497 29.01902595 -14.14299658 25.4917775 -12.59375 21.703125 C-11.86091797 19.90681641 -11.86091797 19.90681641 -11.11328125 18.07421875 C-10.85885254 17.45724121 -10.60442383 16.84026367 -10.34228516 16.20458984 C-9.56003665 14.30652287 -8.78538382 12.40548581 -8.01171875 10.50390625 C-3.73922283 0.07631067 -3.73922283 0.07631067 0 0 Z M-0.0625 12.0625 C-2.2638866 15.86677492 -2.2638866 15.86677492 -3.0625 20.0625 C-1.0825 20.0625 0.8975 20.0625 2.9375 20.0625 C2.2775 17.4225 1.6175 14.7825 0.9375 12.0625 C0.6075 12.0625 0.2775 12.0625 -0.0625 12.0625 Z " fill="#B7A365" transform="translate(77.0625,361.9375)"/>
<path d="M0 0 C2.31 0 4.62 0 7 0 C8.85594207 4.37634785 10.70723236 8.75462235 12.55419922 13.13476562 C13.18345026 14.62521672 13.81397934 16.1151289 14.44580078 17.60449219 C15.35263534 19.74274259 16.25488789 21.88287552 17.15625 24.0234375 C17.44060913 24.69120209 17.72496826 25.35896667 18.01794434 26.04696655 C20 30.77225659 20 30.77225659 20 33 C18.72125 33.061875 17.4425 33.12375 16.125 33.1875 C15.04605469 33.23970703 15.04605469 33.23970703 13.9453125 33.29296875 C13.30335937 33.19628906 12.66140625 33.09960938 12 33 C10 30 10 30 10 27 C5.71 27 1.42 27 -3 27 C-3.33 28.65 -3.66 30.3 -4 32 C-5 33 -5 33 -8.5625 33.0625 C-9.696875 33.041875 -10.83125 33.02125 -12 33 C-11.46071349 28.13032328 -10.44008456 24.12019537 -8.49609375 19.62890625 C-8.00302734 18.47841797 -7.50996094 17.32792969 -7.00195312 16.14257812 C-6.48568359 14.96115234 -5.96941406 13.77972656 -5.4375 12.5625 C-4.91736328 11.35400391 -4.39722656 10.14550781 -3.86132812 8.90039062 C-2.58170626 5.93025915 -1.29441585 2.96370674 0 0 Z M3 11 C2.01 13.97 1.02 16.94 0 20 C2.31 20 4.62 20 7 20 C6.01 17.03 5.02 14.06 4 11 C3.67 11 3.34 11 3 11 Z " fill="#B7A365" transform="translate(1092,362)"/>
<path d="M0 0 C2.31 0 4.62 0 7 0 C8.85594207 4.37634785 10.70723236 8.75462235 12.55419922 13.13476562 C13.18345026 14.62521672 13.81397934 16.1151289 14.44580078 17.60449219 C15.35263534 19.74274259 16.25488789 21.88287552 17.15625 24.0234375 C17.44060913 24.69120209 17.72496826 25.35896667 18.01794434 26.04696655 C20 30.77225659 20 30.77225659 20 33 C17.36 33 14.72 33 12 33 C11.34 31.02 10.68 29.04 10 27 C5.71 27 1.42 27 -3 27 C-3.33 28.98 -3.66 30.96 -4 33 C-6.64 33 -9.28 33 -12 33 C-11.40405108 28.4992514 -10.23171075 24.69723284 -8.49609375 20.5078125 C-7.75649414 18.70957031 -7.75649414 18.70957031 -7.00195312 16.875 C-6.48060478 15.62494326 -5.95911869 14.37494396 -5.4375 13.125 C-4.91153536 11.85179948 -4.3861391 10.578364 -3.86132812 9.3046875 C-2.57978638 6.20076989 -1.29251196 3.09936178 0 0 Z M3 11 C2.01 13.97 1.02 16.94 0 20 C2.31 20 4.62 20 7 20 C6.01 17.03 5.02 14.06 4 11 C3.67 11 3.34 11 3 11 Z " fill="#B7A365" transform="translate(299,362)"/>
<path d="M0 0 C2.31 0 4.62 0 7 0 C8.69694115 3.89338667 10.38739827 7.7895055 12.07202148 11.68823242 C12.64546148 13.0128869 13.22063599 14.33679197 13.79760742 15.65991211 C14.62881304 17.56687997 15.45364954 19.4764965 16.27734375 21.38671875 C17.02359009 23.10701294 17.02359009 23.10701294 17.78491211 24.86206055 C18.84753089 27.60625165 19.54205402 30.10283914 20 33 C17.36 33 14.72 33 12 33 C11.34 31.02 10.68 29.04 10 27 C5.71 27 1.42 27 -3 27 C-3.33 28.98 -3.66 30.96 -4 33 C-6.64 33 -9.28 33 -12 33 C-11.40405108 28.4992514 -10.23171075 24.69723284 -8.49609375 20.5078125 C-7.75649414 18.70957031 -7.75649414 18.70957031 -7.00195312 16.875 C-6.48060478 15.62494326 -5.95911869 14.37494396 -5.4375 13.125 C-4.91153536 11.85179948 -4.3861391 10.578364 -3.86132812 9.3046875 C-2.57978638 6.20076989 -1.29251196 3.09936178 0 0 Z M3 11 C2.01 13.97 1.02 16.94 0 20 C2.31 20 4.62 20 7 20 C6.01 17.03 5.02 14.06 4 11 C3.67 11 3.34 11 3 11 Z " fill="#B7A365" transform="translate(128,362)"/>
<path d="M0 0 C2.31 0 4.62 0 7 0 C7.07347656 1.82724609 7.07347656 1.82724609 7.1484375 3.69140625 C7.22352273 5.31512437 7.29906802 6.93882126 7.375 8.5625 C7.4059375 9.36236328 7.436875 10.16222656 7.46875 10.98632812 C7.71256564 15.96423083 8.43631388 20.26444649 10 25 C12.31 25 14.62 25 17 25 C18.77965702 21.91526116 19.28436571 19.56067048 19.4140625 16.015625 C19.45273437 15.08105469 19.49140625 14.14648438 19.53125 13.18359375 C19.5621875 12.21550781 19.593125 11.24742187 19.625 10.25 C19.66367187 9.26644531 19.70234375 8.28289062 19.7421875 7.26953125 C19.83628426 4.84653963 19.92192328 2.42355204 20 0 C22.31 0 24.62 0 27 0 C27.11662261 4.04142215 27.1873935 8.08240865 27.25 12.125 C27.30027344 13.83816406 27.30027344 13.83816406 27.3515625 15.5859375 C27.47558873 26.252193 27.47558873 26.252193 23 31 C18.26223538 33.87981771 14.45009017 34.47671756 9.08203125 33.64453125 C5.08645425 32.40762655 3.00352948 29.63144845 0.88330078 26.18457031 C-0.22220437 23.45044645 -0.22664981 21.30508221 -0.1953125 18.359375 C-0.18886719 17.28945313 -0.18242187 16.21953125 -0.17578125 15.1171875 C-0.15902344 14.00601562 -0.14226562 12.89484375 -0.125 11.75 C-0.11597656 10.62335938 -0.10695313 9.49671875 -0.09765625 8.3359375 C-0.07410658 5.55707635 -0.0412168 2.7786461 0 0 Z " fill="#B7A365" transform="translate(389,362)"/>
<path d="M0 0 C2.64 0 5.28 0 8 0 C10.64 6.6 13.28 13.2 16 20 C18.26171582 13.79322221 18.26171582 13.79322221 20.51733398 7.58422852 C20.79907471 6.81522217 21.08081543 6.04621582 21.37109375 5.25390625 C21.65911865 4.46314697 21.94714355 3.6723877 22.24389648 2.85766602 C23 1 23 1 24 0 C26.67058851 -0.14115161 29.32432238 -0.04247107 32 0 C29.66737643 7.36985054 26.8202139 14.44438679 23.8125 21.5625 C23.34908203 22.66658203 22.88566406 23.77066406 22.40820312 24.90820312 C21.27506147 27.60671574 20.1389372 30.30392958 19 33 C16.69 33 14.38 33 12 33 C10.28439209 28.78512551 8.57559157 24.56758029 6.87304688 20.34741211 C6.29288127 18.91208628 5.71086106 17.47750865 5.12695312 16.04370117 C4.28807948 13.98289679 3.45590761 11.91949566 2.625 9.85546875 C2.23127197 8.89437447 2.23127197 8.89437447 1.82958984 7.91386414 C0.70398703 5.10091871 0 3.06281705 0 0 Z " fill="#B7A365" transform="translate(464,362)"/>
<path d="M0 0 C7.26 0 14.52 0 22 0 C22 2.31 22 4.62 22 7 C17.05 7 12.1 7 7 7 C7.33 8.98 7.66 10.96 8 13 C8.78246094 12.98839844 9.56492187 12.97679687 10.37109375 12.96484375 C11.38300781 12.95582031 12.39492188 12.94679688 13.4375 12.9375 C14.44683594 12.92589844 15.45617187 12.91429687 16.49609375 12.90234375 C19 13 19 13 20 14 C20.125 17 20.125 17 20 20 C19 21 19 21 16.27734375 21.09765625 C13.18489583 21.06510417 10.09244792 21.03255208 7 21 C7 24.96 7 28.92 7 33 C4.69 33 2.38 33 0 33 C0 22.11 0 11.22 0 0 Z " fill="#B7A365" transform="translate(697,362)"/>
<path d="M0 0 C5.02072539 -1.05699482 5.02072539 -1.05699482 8 0 C10.90802029 3.71791753 12.97519248 7.7479042 15 12 C15.4125 11.13375 15.825 10.2675 16.25 9.375 C20.91072697 0.38645513 20.91072697 0.38645513 24.24609375 -0.796875 C26.4375 -0.75 26.4375 -0.75 30 0 C29.58056274 4.02210372 28.12753178 6.47496437 25.76147461 9.70849609 C20.11534172 17.44720582 18.63109241 23.29035227 19 33 C16.36 33 13.72 33 11 33 C11.04382813 32.175 11.08765625 31.35 11.1328125 30.5 C11.10997327 20.26802274 7.87943062 14.52068956 2.15234375 6.30078125 C0 3 0 3 0 0 Z " fill="#B7A365" transform="translate(618,362)"/>
<path d="M0 0 C9.24 0 18.48 0 28 0 C28 2.31 28 4.62 28 7 C24.7 7 21.4 7 18 7 C18 15.58 18 24.16 18 33 C15.69 33 13.38 33 11 33 C10 32 10 32 9.88647461 29.68334961 C9.89171143 28.68311768 9.89694824 27.68288574 9.90234375 26.65234375 C9.90556641 25.57275391 9.90878906 24.49316406 9.91210938 23.38085938 C9.92048828 22.24455078 9.92886719 21.10824219 9.9375 19.9375 C9.94201172 18.79732422 9.94652344 17.65714844 9.95117188 16.48242188 C9.96300253 13.65489649 9.9794859 10.8274736 10 8 C6.7 7.67 3.4 7.34 0 7 C0 4.69 0 2.38 0 0 Z " fill="#B7A365" transform="translate(729,362)"/>
<path d="M0 0 C5.61 0 11.22 0 17 0 C17.13506279 4.37603447 17.23417753 8.74789268 17.3125 13.125 C17.35439453 14.3625 17.39628906 15.6 17.43945312 16.875 C17.57763638 27.15583406 17.57763638 27.15583406 14.7265625 30.80078125 C11.05626708 33.76120578 8.6418892 34.40877694 4 34 C-0.05763553 32.49717203 -1.58772494 31.61841259 -4 28 C-4 26.68 -4 25.36 -4 24 C-0.535 23.505 -0.535 23.505 3 23 C3.33 23.66 3.66 24.32 4 25 C5.32 25 6.64 25 8 25 C9.18695553 21.43913342 9.35095418 18.02668976 9.5625 14.3125 C9.60568359 13.61060547 9.64886719 12.90871094 9.69335938 12.18554688 C9.7991736 10.45724794 9.90006581 8.7286489 10 7 C6.7 7 3.4 7 0 7 C0 4.69 0 2.38 0 0 Z " fill="#B7A365" transform="translate(97,362)"/>
<path d="M0 0 C5.01395129 -0.96760463 5.01395129 -0.96760463 8 0 C10.87568892 3.37866113 12.90362221 7.10499083 15 11 C15.33 11.33 15.66 11.66 16 12 C16.4125 11.13375 16.825 10.2675 17.25 9.375 C21.91072697 0.38645513 21.91072697 0.38645513 25.24609375 -0.796875 C27.4375 -0.75 27.4375 -0.75 31 0 C29.70170851 3.7458902 27.86176859 6.82133745 25.67358398 10.11499023 C20.71221264 17.68100805 18.60978837 23.74418012 19 33 C16.69 33 14.38 33 12 33 C12.05542969 32.27039063 12.11085938 31.54078125 12.16796875 30.7890625 C12.23614437 19.74461209 7.08511868 12.53079747 0.99389648 3.6730957 C0 2 0 2 0 0 Z " fill="#B7A365" transform="translate(1013,362)"/>
<path d="M0 0 C1.12591553 0.00523682 2.25183105 0.01047363 3.41186523 0.01586914 C4.62680664 0.0190918 5.84174805 0.02231445 7.09350586 0.02563477 C8.37290039 0.03401367 9.65229492 0.04239258 10.97045898 0.05102539 C12.2537207 0.05553711 13.53698242 0.06004883 14.85913086 0.06469727 C18.04211921 0.07652994 21.22501661 0.09301471 24.40795898 0.11352539 C24.40795898 2.42352539 24.40795898 4.73352539 24.40795898 7.11352539 C21.10795898 7.11352539 17.80795898 7.11352539 14.40795898 7.11352539 C14.40795898 15.69352539 14.40795898 24.27352539 14.40795898 33.11352539 C12.09795898 33.11352539 9.78795898 33.11352539 7.40795898 33.11352539 C7.40795898 24.53352539 7.40795898 15.95352539 7.40795898 7.11352539 C3.77795898 7.11352539 0.14795898 7.11352539 -3.59204102 7.11352539 C-3.63458458 5.11397793 -3.63284884 3.11310903 -3.59204102 1.11352539 C-2.59204102 0.11352539 -2.59204102 0.11352539 0 0 Z " fill="#B7A365" transform="translate(592.592041015625,361.886474609375)"/>
<path d="M0 0 C2.31 0 4.62 0 7 0 C8 1 8 1 8.11352539 3.31665039 C8.10828857 4.31688232 8.10305176 5.31711426 8.09765625 6.34765625 C8.09443359 7.42724609 8.09121094 8.50683594 8.08789062 9.61914062 C8.07951172 10.75544922 8.07113281 11.89175781 8.0625 13.0625 C8.05798828 14.20267578 8.05347656 15.34285156 8.04882812 16.51757812 C8.0369976 19.34507418 8.0190615 22.17254345 8 25 C12.95 25.33 17.9 25.66 23 26 C23 28.31 23 30.62 23 33 C15.41 33 7.82 33 0 33 C0 22.11 0 11.22 0 0 Z " fill="#B7A365" transform="translate(923,362)"/>
<path d="M0 0 C2.31 0 4.62 0 7 0 C7 8.58 7 17.16 7 26 C12.28 26 17.56 26 23 26 C23 28.31 23 30.62 23 33 C15.41 33 7.82 33 0 33 C0 22.11 0 11.22 0 0 Z " fill="#B7A365" transform="translate(1056,362)"/>
<path d="M0 0 C2.31 0 4.62 0 7 0 C7 10.89 7 21.78 7 33 C4.69 33 2.38 33 0 33 C0 22.11 0 11.22 0 0 Z " fill="#B7A365" transform="translate(579,362)"/>
<path d="M0 0 C2.31 0 4.62 0 7 0 C7 10.89 7 21.78 7 33 C4.69 33 2.38 33 0 33 C0 22.11 0 11.22 0 0 Z " fill="#B7A365" transform="translate(454,362)"/>
</svg>
