<?xml version="1.0" encoding="UTF-8"?>
<svg version="1.1" xmlns="http://www.w3.org/2000/svg" width="256" height="256">
<path d="M0 0 C2.14649466 -0.00067507 4.29298924 -0.00164679 6.43948364 -0.00289917 C10.9227166 -0.00436721 15.40592954 -0.00225088 19.88916016 0.00244141 C25.60008278 0.0081312 31.31095831 0.0048587 37.0218792 -0.00113106 C41.45057522 -0.0047668 45.87926032 -0.0035842 50.3079567 -0.00100327 C52.41202932 -0.00034195 54.51610299 -0.0011342 56.62017441 -0.00348282 C85.68957937 -0.02881257 110.71257492 2.39304433 132.4921875 23.68359375 C148.35914973 40.80180971 154.03930143 60.62085451 154.02807617 83.55517578 C154.03143478 84.55652054 154.0347934 85.5578653 154.03825378 86.58955383 C154.04769857 89.87742376 154.04970381 93.16524238 154.05078125 96.453125 C154.05399894 98.75845358 154.0573634 101.06378195 154.06086731 103.36911011 C154.06684286 108.19562248 154.06870889 113.022117 154.06811523 117.84863281 C154.06801385 123.99788681 154.08164906 130.14702474 154.09888744 136.2962513 C154.11007174 141.05783604 154.11203245 145.81939331 154.11150551 150.58098984 C154.11267661 152.84612298 154.1170488 155.11125705 154.12483788 157.37637711 C154.21060103 184.8984262 151.3857479 209.22635121 131.171875 229.90625 C113.48228132 246.4066273 93.50199093 252.2902043 69.65405273 252.27807617 C68.68503525 252.28143478 67.71601776 252.2847934 66.71763611 252.28825378 C63.54221278 252.29768275 60.36684267 252.29970306 57.19140625 252.30078125 C54.95955891 252.30400026 52.72771178 252.3073648 50.49586487 252.31086731 C45.82495638 252.31683909 41.15406633 252.3187093 36.4831543 252.31811523 C30.54150996 252.31801392 24.59998594 252.33164337 18.65837002 252.34888744 C14.04854302 252.36009004 9.43874431 252.3620319 4.82890511 252.36150551 C2.6407842 252.36267409 0.45266228 252.36703164 -1.73544502 252.37483788 C-31.06257367 252.4696447 -55.1388893 249.21602565 -77.296875 228.05078125 C-85.78910755 219.14550237 -91.58482971 207.85126928 -95.1171875 196.1328125 C-95.32988281 195.43800781 -95.54257813 194.74320313 -95.76171875 194.02734375 C-98.12156208 185.52172138 -98.26691162 176.67477948 -98.26245117 167.90405273 C-98.26580978 166.93503525 -98.2691684 165.96601776 -98.27262878 164.96763611 C-98.28205775 161.79221278 -98.28407806 158.61684267 -98.28515625 155.44140625 C-98.28837526 153.20955891 -98.2917398 150.97771178 -98.29524231 148.74586487 C-98.30121409 144.07495638 -98.3030843 139.40406633 -98.30249023 134.7331543 C-98.30238892 128.79150996 -98.31601837 122.84998594 -98.33326244 116.90837002 C-98.34446504 112.29854302 -98.3464069 107.68874431 -98.34588051 103.07890511 C-98.34704909 100.8907842 -98.35140664 98.70266228 -98.35921288 96.51455498 C-98.45476337 66.95738308 -95.24123264 43.22380374 -74.03125 20.94140625 C-65.10172154 12.46001398 -53.84330146 6.67878936 -42.1171875 3.1328125 C-41.44558594 2.92011719 -40.77398437 2.70742187 -40.08203125 2.48828125 C-27.29277866 -1.1620393 -13.16134866 -0.01465831 0 0 Z " fill="#180578" transform="translate(100.1171875,1.8671875)"/>
<path d="M0 0 C6.93 0 13.86 0 21 0 C21 28.38 21 56.76 21 86 C14.07 86 7.14 86 0 86 C0 72.14 0 58.28 0 44 C-10.84909908 48.03041051 -10.84909908 48.03041051 -20.4375 53.4375 C-20.99630859 53.79392578 -21.55511719 54.15035156 -22.13085938 54.51757812 C-26.41474448 57.3352674 -29.24000696 60.24000696 -33 64 C-19.14 64.495 -19.14 64.495 -5 65 C-5 71.93 -5 78.86 -5 86 C-56.48 86 -107.96 86 -161 86 C-161 72.8 -161 59.6 -161 46 C-154.4 46 -147.8 46 -141 46 C-141 52.27 -141 58.54 -141 65 C-129.78 64.67 -118.56 64.34 -107 64 C-116.8241264 56.46283179 -116.8241264 56.46283179 -127.3125 50.625 C-127.96283203 50.30917969 -128.61316406 49.99335937 -129.28320312 49.66796875 C-131.17877544 48.75521565 -133.08753469 47.87666256 -135 47 C-136.10859375 46.46503906 -137.2171875 45.93007812 -138.359375 45.37890625 C-142.85156368 43.67746569 -147.19925122 42.97258934 -151.9375 42.3125 C-154.928125 41.879375 -157.91875 41.44625 -161 41 C-161 29.45 -161 17.9 -161 6 C-144.83 6 -128.66 6 -112 6 C-112 12.6 -112 19.2 -112 26 C-118.435 26.495 -118.435 26.495 -125 27 C-123.7625 27.515625 -122.525 28.03125 -121.25 28.5625 C-109.74804171 33.7464812 -100.94103809 40.28053283 -92 49 C-91.01386719 49.87591797 -91.01386719 49.87591797 -90.0078125 50.76953125 C-80.94653939 59.01654249 -75.1157357 71.0463071 -70 82 C-69.23816406 80.42412109 -69.23816406 80.42412109 -68.4609375 78.81640625 C-60.72857258 62.97402733 -51.72638999 50.34919396 -38 39 C-37.19369141 38.32710937 -37.19369141 38.32710937 -36.37109375 37.640625 C-30.53115366 33.13260107 -23.61616775 30.18420279 -17 27 C-20.96 26.67 -24.92 26.34 -29 26 C-29 19.07 -29 12.14 -29 5 C-19.43 5 -9.86 5 0 5 C0 3.35 0 1.7 0 0 Z " fill="#FAFAFC" transform="translate(198,47)"/>
<path d="M0 0 C2.14649466 -0.00067507 4.29298924 -0.00164679 6.43948364 -0.00289917 C10.9227166 -0.00436721 15.40592954 -0.00225088 19.88916016 0.00244141 C25.60008278 0.0081312 31.31095831 0.0048587 37.0218792 -0.00113106 C41.45057522 -0.0047668 45.87926032 -0.0035842 50.3079567 -0.00100327 C52.41202932 -0.00034195 54.51610299 -0.0011342 56.62017441 -0.00348282 C85.68957937 -0.02881257 110.71257492 2.39304433 132.4921875 23.68359375 C148.35914973 40.80180971 154.03930143 60.62085451 154.02807617 83.55517578 C154.03143478 84.55652054 154.0347934 85.5578653 154.03825378 86.58955383 C154.04769857 89.87742376 154.04970381 93.16524238 154.05078125 96.453125 C154.05399894 98.75845358 154.0573634 101.06378195 154.06086731 103.36911011 C154.06684286 108.19562248 154.06870889 113.022117 154.06811523 117.84863281 C154.06801385 123.99788681 154.08164906 130.14702474 154.09888744 136.2962513 C154.11007174 141.05783604 154.11203245 145.81939331 154.11150551 150.58098984 C154.11267661 152.84612298 154.1170488 155.11125705 154.12483788 157.37637711 C154.21060103 184.8984262 151.3857479 209.22635121 131.171875 229.90625 C113.48228132 246.4066273 93.50199093 252.2902043 69.65405273 252.27807617 C68.68503525 252.28143478 67.71601776 252.2847934 66.71763611 252.28825378 C63.54221278 252.29768275 60.36684267 252.29970306 57.19140625 252.30078125 C54.95955891 252.30400026 52.72771178 252.3073648 50.49586487 252.31086731 C45.82495638 252.31683909 41.15406633 252.3187093 36.4831543 252.31811523 C30.54150996 252.31801392 24.59998594 252.33164337 18.65837002 252.34888744 C14.04854302 252.36009004 9.43874431 252.3620319 4.82890511 252.36150551 C2.6407842 252.36267409 0.45266228 252.36703164 -1.73544502 252.37483788 C-31.06257367 252.4696447 -55.1388893 249.21602565 -77.296875 228.05078125 C-85.78910755 219.14550237 -91.58482971 207.85126928 -95.1171875 196.1328125 C-95.32988281 195.43800781 -95.54257813 194.74320313 -95.76171875 194.02734375 C-98.12156208 185.52172138 -98.26691162 176.67477948 -98.26245117 167.90405273 C-98.26580978 166.93503525 -98.2691684 165.96601776 -98.27262878 164.96763611 C-98.28205775 161.79221278 -98.28407806 158.61684267 -98.28515625 155.44140625 C-98.28837526 153.20955891 -98.2917398 150.97771178 -98.29524231 148.74586487 C-98.30121409 144.07495638 -98.3030843 139.40406633 -98.30249023 134.7331543 C-98.30238892 128.79150996 -98.31601837 122.84998594 -98.33326244 116.90837002 C-98.34446504 112.29854302 -98.3464069 107.68874431 -98.34588051 103.07890511 C-98.34704909 100.8907842 -98.35140664 98.70266228 -98.35921288 96.51455498 C-98.45476337 66.95738308 -95.24123264 43.22380374 -74.03125 20.94140625 C-65.10172154 12.46001398 -53.84330146 6.67878936 -42.1171875 3.1328125 C-41.44558594 2.92011719 -40.77398437 2.70742187 -40.08203125 2.48828125 C-27.29277866 -1.1620393 -13.16134866 -0.01465831 0 0 Z M-74.4921875 35.6953125 C-84.96466158 48.7168052 -89.25997443 63.40042586 -89.27832031 79.87304688 C-89.28328522 80.94383484 -89.28825012 82.0146228 -89.29336548 83.11785889 C-89.3079472 86.65410003 -89.31478387 90.19029625 -89.3203125 93.7265625 C-89.32606894 96.19551595 -89.33182661 98.6644694 -89.33758545 101.13342285 C-89.34808529 106.31160693 -89.35393405 111.48977553 -89.35742188 116.66796875 C-89.36289254 123.27369871 -89.38689455 129.87922109 -89.41539383 136.48488617 C-89.43410639 141.58785581 -89.43923047 146.69077642 -89.44075775 151.79377747 C-89.44376734 154.22720978 -89.45173797 156.66064157 -89.46494293 159.09403992 C-89.59345652 184.60544899 -85.96579899 205.76243249 -67.8046875 224.9453125 C-52.61961243 239.26341962 -34.42059408 244.46043205 -13.92358398 244.4074707 C-12.87636169 244.41258163 -11.8291394 244.41769257 -10.75018311 244.42295837 C-7.3294891 244.43672387 -3.90899945 244.43590799 -0.48828125 244.43359375 C1.91202365 244.43748682 4.31232788 244.44182274 6.71263123 244.44657898 C11.72633099 244.45401238 16.73996028 244.45377011 21.75366211 244.44848633 C28.15775603 244.4426846 34.56156141 244.45965403 40.96560764 244.482831 C45.9166175 244.49760418 50.86755835 244.49843534 55.81858635 244.49532127 C58.1791332 244.49583232 60.53968414 244.501029 62.90020943 244.51113319 C66.20652889 244.52355482 69.51229208 244.51667223 72.81860352 244.50512695 C73.77943344 244.51277069 74.74026337 244.52041443 75.73020935 244.52828979 C85.6561239 244.4521921 94.58928962 241.36833528 103.8828125 238.1328125 C103.8828125 237.4728125 103.8828125 236.8128125 103.8828125 236.1328125 C104.60726562 236.03355469 105.33171875 235.93429688 106.078125 235.83203125 C111.08319416 234.58424938 114.81855041 231.1986102 118.8828125 228.1328125 C119.50542969 227.69066406 120.12804687 227.24851563 120.76953125 226.79296875 C126.85844257 222.12338408 130.76018224 215.4895387 134.8828125 209.1328125 C135.30691406 208.51535156 135.73101562 207.89789063 136.16796875 207.26171875 C141.11701265 199.54762199 144.98864611 187.74467475 145.02325439 178.57670593 C145.02896454 177.66732773 145.03467468 176.75794952 145.04055786 175.8210144 C145.04167572 174.83037994 145.04279358 173.83974548 145.04394531 172.8190918 C145.04891022 171.76970932 145.05387512 170.72032684 145.05899048 169.6391449 C145.07361144 166.16176701 145.08041676 162.68443486 145.0859375 159.20703125 C145.0916924 156.78245544 145.09745009 154.35787963 145.10321045 151.93330383 C145.11372259 146.84152006 145.11956275 141.74975208 145.12304688 136.65795898 C145.1285085 130.16661042 145.15248566 123.67547406 145.18101883 117.1841917 C145.19974947 112.16953447 145.20485651 107.15492706 145.20638275 102.14023781 C145.20939024 99.74949811 145.21735355 97.35875889 145.23056793 94.96805382 C145.36007133 69.72034967 142.21798298 48.68387837 124.46875 29.52734375 C109.5230708 15.38493395 92.37652855 8.9783206 72.04150391 8.98754883 C70.43768608 8.98251091 70.43768608 8.98251091 68.8014679 8.97737122 C65.27909167 8.96789919 61.75676316 8.96592006 58.234375 8.96484375 C55.77729269 8.96162882 53.32021057 8.95826457 50.86312866 8.95475769 C45.71701616 8.94877599 40.57092042 8.94691683 35.42480469 8.94750977 C28.84219809 8.94761139 22.25969934 8.93395432 15.6771183 8.91673756 C10.6035208 8.90560082 5.52994926 8.90359107 0.45634079 8.90411949 C-1.97005205 8.90294209 -4.39644562 8.89853383 -6.82282639 8.89078712 C-10.22099039 8.88095256 -13.61892182 8.88387897 -17.01708984 8.88989258 C-18.01166702 8.88427307 -19.0062442 8.87865356 -20.03096008 8.87286377 C-42.37587826 8.97297358 -59.85592748 19.52645981 -74.4921875 35.6953125 Z " fill="#F4C716" transform="translate(100.1171875,1.8671875)"/>
<path d="M0 0 C25.74 0 51.48 0 78 0 C78.226875 8.415 78.45375 16.83 78.6875 25.5 C78.78764404 28.14193359 78.88778809 30.78386719 78.9909668 33.50585938 C79.38252485 51.1734359 79.38252485 51.1734359 75.66503906 55.30078125 C72.83792071 57.34001416 70.19386881 58.63737069 67 60 C64.47648834 61.9761135 64.47648834 61.9761135 62.375 64 C59.09375 67 59.09375 67 58 67 C58 51.49 58 35.98 58 20 C45.46 20 32.92 20 20 20 C20 35.84 20 51.68 20 68 C17.69 66.02 15.38 64.04 13 62 C11.0810522 60.53782632 9.14509319 59.09751468 7.1875 57.6875 C6.25292969 57.01074219 5.31835938 56.33398438 4.35546875 55.63671875 C2.12153221 54.00113007 2.12153221 54.00113007 0 53 C0 35.51 0 18.02 0 0 Z " fill="#FAF9FB" transform="translate(89,27)"/>
<path d="M0 0 C11.88 0 23.76 0 36 0 C36 15.84 36 31.68 36 48 C36.66 48 37.32 48 38 48 C36.712193 50.7561477 35.28617711 53.01539027 33.375 55.375 C26.98861442 63.74930462 22.01664611 73.29310523 18 83 C16.18667415 80.28001123 14.79175582 77.54716511 13.38500977 74.60473633 C10.01520646 67.58248004 6.46414566 61.4182632 1.56640625 55.33203125 C-1.02586516 51.47271446 -1.12984699 47.57911225 -1.02172852 43.02612305 C-0.99158409 41.58519539 -0.99158409 41.58519539 -0.96083069 40.11515808 C-0.93379562 39.0910231 -0.90676056 38.06688812 -0.87890625 37.01171875 C-0.85529526 35.95338333 -0.83168427 34.89504791 -0.80735779 33.80464172 C-0.73092775 30.43211766 -0.64681439 27.05983526 -0.5625 23.6875 C-0.50925865 21.39779819 -0.45651839 19.10808467 -0.40429688 16.81835938 C-0.27628021 11.21204244 -0.13787274 5.60611787 0 0 Z " fill="#13017C" transform="translate(110,48)"/>
<path d="M0 0 C0.81013046 -0.00058411 1.62026093 -0.00116821 2.4549408 -0.00177002 C5.12827652 0.00101304 7.80049228 0.03211467 10.47363281 0.06347656 C12.32879019 0.07093818 14.18395546 0.07663149 16.03912354 0.08062744 C20.91865858 0.09589001 25.79771634 0.1351772 30.67706299 0.17944336 C35.65736433 0.22038262 40.6377429 0.23863558 45.61816406 0.25878906 C55.38790486 0.30167084 65.15729162 0.36992974 74.92675781 0.45410156 C74.92675781 3.42410156 74.92675781 6.39410156 74.92675781 9.45410156 C48.52675781 9.45410156 22.12675781 9.45410156 -5.07324219 9.45410156 C-5.07324219 10.44410156 -5.07324219 11.43410156 -5.07324219 12.45410156 C21.32675781 12.45410156 47.72675781 12.45410156 74.92675781 12.45410156 C74.92675781 15.42410156 74.92675781 18.39410156 74.92675781 21.45410156 C49.18675781 21.78410156 23.44675781 22.11410156 -3.07324219 22.45410156 C-4.50668671 25.3209906 -4.23778278 27.81086234 -4.27856445 31.01513672 C-4.29341385 32.02506935 -4.29341385 32.02506935 -4.30856323 33.05540466 C-4.34019334 35.28462182 -4.36494152 37.5138603 -4.38964844 39.74316406 C-4.41021667 41.28730834 -4.43121311 42.83144697 -4.45262146 44.37557983 C-4.50785568 48.44274323 -4.55725897 52.50995755 -4.60546875 56.57720947 C-4.65567393 60.72632386 -4.71136512 64.87536415 -4.76660156 69.02441406 C-4.87419965 77.16758062 -4.97564092 85.31080909 -5.07324219 93.45410156 C-8.37324219 93.45410156 -11.67324219 93.45410156 -15.07324219 93.45410156 C-15.14276064 82.58825659 -15.19606291 71.72246455 -15.2286787 60.85644245 C-15.24433286 55.81087194 -15.2655667 50.76545362 -15.29956055 45.7199707 C-15.33216272 40.85055737 -15.35009708 35.98129041 -15.35787392 31.11177635 C-15.36341587 29.25423059 -15.37423795 27.3966928 -15.39043236 25.53920937 C-15.41221805 22.93685231 -15.41520864 20.33509963 -15.41381836 17.73266602 C-15.42460419 16.96518036 -15.43539001 16.1976947 -15.44650269 15.4069519 C-15.42027966 10.86902315 -14.86198612 8.05569274 -12.07324219 4.45410156 C-11.51787781 3.70034241 -10.96251343 2.94658325 -10.39031982 2.16998291 C-7.0709044 -0.28816649 -3.96837345 -0.074921 0 0 Z " fill="#EBBC11" transform="translate(144.0732421875,135.5458984375)"/>
<path d="M0 0 C10.5704067 -0.1391999 21.14059431 -0.24572237 31.71173191 -0.31087303 C36.62073267 -0.34214708 41.52910502 -0.38454779 46.43774414 -0.45263672 C51.17753689 -0.51796989 55.91672636 -0.55373558 60.65693474 -0.56926346 C62.46266105 -0.58032484 64.26835541 -0.60192591 66.07382393 -0.63438034 C68.60925998 -0.67813168 71.14222395 -0.68392667 73.67797852 -0.68115234 C74.79036896 -0.71350983 74.79036896 -0.71350983 75.92523193 -0.746521 C81.15533236 -0.68485887 83.83099644 0.90623794 87.66366482 4.41847801 C90.76161432 8.08483008 90.13450393 12.53125589 90.11352539 17.05151367 C90.11367142 17.87125168 90.11381744 18.69098969 90.1139679 19.53556824 C90.11327096 22.24639528 90.10548878 24.9571537 90.09765625 27.66796875 C90.09579129 29.54698143 90.09436776 31.4259946 90.09336853 33.30500793 C90.08954948 38.25175315 90.07972438 43.19846902 90.06866455 48.14520264 C90.0584373 53.19250085 90.05386809 58.23980379 90.04882812 63.28710938 C90.03810159 73.19141914 90.02103248 83.09570713 90 93 C87.03 93 84.06 93 81 93 C80.67 69.9 80.34 46.8 80 23 C75.43048921 21.17219568 72.29912005 20.69617315 67.54760742 20.68115234 C66.44923553 20.66608391 66.44923553 20.66608391 65.32867432 20.65071106 C62.92094673 20.61994929 60.51332998 20.60286367 58.10546875 20.5859375 C56.43108674 20.56722019 54.75671411 20.54764636 53.08235168 20.5272522 C48.68479954 20.47598439 44.28721684 20.43633009 39.88952637 20.39910889 C35.39827955 20.35903564 30.90715928 20.30795846 26.41601562 20.2578125 C17.61076362 20.16111658 8.80544885 20.07669162 0 20 C0 17.36 0 14.72 0 12 C26.4 12 52.8 12 80 12 C80 11.01 80 10.02 80 9 C53.6 9 27.2 9 0 9 C0 6.03 0 3.06 0 0 Z " fill="#F2C10E" transform="translate(36,136)"/>
<path d="M0 0 C1.06889214 -0.00043808 1.06889214 -0.00043808 2.15937805 -0.00088501 C4.50774437 0.00050501 6.85579087 0.01605056 9.20410156 0.03173828 C10.8350609 0.03546958 12.46602248 0.038316 14.09698486 0.04031372 C18.38452367 0.04794098 22.67192646 0.06758166 26.95941162 0.08972168 C31.33652913 0.11019966 35.71366868 0.11931961 40.09082031 0.12939453 C48.67551807 0.15082843 57.26010538 0.1849534 65.84472656 0.22705078 C65.84472656 2.86705078 65.84472656 5.50705078 65.84472656 8.22705078 C43.73472656 8.22705078 21.62472656 8.22705078 -1.15527344 8.22705078 C-1.15527344 9.21705078 -1.15527344 10.20705078 -1.15527344 11.22705078 C20.95472656 11.22705078 43.06472656 11.22705078 65.84472656 11.22705078 C65.84472656 14.19705078 65.84472656 17.16705078 65.84472656 20.22705078 C65.04737091 20.23513763 64.25001526 20.24322449 63.42849731 20.2515564 C55.92374011 20.32941281 48.41917984 20.41667585 40.9146595 20.51457787 C37.05626158 20.56457973 33.19789157 20.61090914 29.33935547 20.64892578 C25.61747067 20.68572985 21.89581712 20.73207593 18.17412949 20.78511429 C16.75236939 20.80368432 15.33055968 20.81878261 13.90872574 20.83039474 C11.92131152 20.84721194 9.93402373 20.87738305 7.94677734 20.90820312 C6.24800949 20.92818863 6.24800949 20.92818863 4.5149231 20.94857788 C1.69225723 20.95955568 1.69225723 20.95955568 -0.15527344 23.22705078 C-0.48524791 25.28612275 -0.48524791 25.28612275 -0.47412109 27.67675781 C-0.49399078 28.59756134 -0.51386047 29.51836487 -0.53433228 30.46707153 C-0.55165909 31.96087845 -0.55165909 31.96087845 -0.56933594 33.48486328 C-0.58870209 34.50305145 -0.60806824 35.52123962 -0.62802124 36.57028198 C-0.68792698 39.83078567 -0.73424642 43.09132445 -0.78027344 46.35205078 C-0.81844309 48.55909765 -0.85749421 50.76612947 -0.89746094 52.97314453 C-0.99363758 58.39099137 -1.07762791 63.80890795 -1.15527344 69.22705078 C-4.45527344 69.22705078 -7.75527344 69.22705078 -11.15527344 69.22705078 C-11.15527344 47.11705078 -11.15527344 25.00705078 -11.15527344 2.22705078 C-6.82356744 0.06119778 -4.76560473 -0.01643312 0 0 Z " fill="#F0C00E" transform="translate(153.1552734375,159.77294921875)"/>
<path d="M0 0 C9.61384418 -0.04627741 19.22765021 -0.08184573 28.84158134 -0.10362434 C33.30539755 -0.11407534 37.76913772 -0.12825844 42.23291016 -0.15087891 C46.53820674 -0.17256052 50.84343005 -0.1845587 55.14877701 -0.18975449 C56.79387694 -0.19345869 58.43897273 -0.20069177 60.0840416 -0.21146011 C62.38277704 -0.22591299 64.68120713 -0.22798058 66.97998047 -0.22705078 C68.2901413 -0.231492 69.60030212 -0.23593323 70.95016479 -0.24050903 C74 0 74 0 76 2 C76.24050903 4.78408813 76.24050903 4.78408813 76.22705078 8.37744141 C76.22734283 9.03122269 76.22763489 9.68500397 76.22793579 10.3585968 C76.22654065 12.52305296 76.2109712 14.68716636 76.1953125 16.8515625 C76.19158302 18.35085868 76.18873574 19.8501573 76.18673706 21.34945679 C76.17909548 25.29836743 76.1594426 29.24713129 76.1373291 33.19598389 C76.1168819 37.22438572 76.10773776 41.25281124 76.09765625 45.28125 C76.07619711 53.18756741 76.04205495 61.09376545 76 69 C73.03 69 70.06 69 67 69 C66.98541748 67.65252686 66.97083496 66.30505371 66.95581055 64.91674805 C66.89789702 59.92380046 66.82066372 54.93130717 66.73754883 49.9387207 C66.70426678 47.77668625 66.67624515 45.61456423 66.65356445 43.45239258 C66.62007892 40.34678782 66.567766 37.24198802 66.51171875 34.13671875 C66.50532883 33.16788254 66.4989389 32.19904633 66.49235535 31.20085144 C66.47256119 30.3001442 66.45276703 29.39943695 66.43237305 28.47143555 C66.42126999 27.67867722 66.41016693 26.88591888 66.39872742 26.06913757 C66.12600836 23.95153928 66.12600836 23.95153928 64.85571289 22.24755859 C62.17449905 20.44503225 60.09137563 20.59971433 56.8762207 20.56762695 C55.61513992 20.54783279 54.35405914 20.52803864 53.05476379 20.50764465 C51.67843779 20.50087488 50.30211017 20.49442802 48.92578125 20.48828125 C47.51757739 20.47143621 46.10938859 20.4532862 44.70121765 20.43388367 C40.99739282 20.38635785 37.293629 20.35656556 33.58959961 20.33044434 C29.80895942 20.30065158 26.02852955 20.25411693 22.24804688 20.20898438 C14.83213555 20.12292206 7.41620898 20.05559019 0 20 C0 17.03 0 14.06 0 11 C22.11 11 44.22 11 67 11 C66.505 10.01 66.505 10.01 66 9 C33.33 8.505 33.33 8.505 0 8 C0 5.36 0 2.72 0 0 Z " fill="#F4C30D" transform="translate(37,160)"/>
<path d="M0 0 C1.83155891 0.00022659 1.83155891 0.00022659 3.70011902 0.00045776 C5.67834404 0.01594162 5.67834404 0.01594162 7.6965332 0.03173828 C9.05987847 0.03546917 10.42322641 0.03831578 11.78657532 0.04031372 C15.372156 0.04794425 18.95757425 0.06758763 22.54309082 0.08972168 C26.20293989 0.11019267 29.86281524 0.11931811 33.52270508 0.12939453 C40.70181553 0.15083418 47.88079222 0.18496299 55.05981445 0.22705078 C55.05981445 3.19705078 55.05981445 6.16705078 55.05981445 9.22705078 C37.23981445 9.22705078 19.41981445 9.22705078 1.05981445 9.22705078 C1.05981445 10.21705078 1.05981445 11.20705078 1.05981445 12.22705078 C18.87981445 12.22705078 36.69981445 12.22705078 55.05981445 12.22705078 C55.05981445 14.86705078 55.05981445 17.50705078 55.05981445 20.22705078 C37.56981445 20.55705078 20.07981445 20.88705078 2.05981445 21.22705078 C1.72981445 29.80705078 1.39981445 38.38705078 1.05981445 47.22705078 C-2.24018555 47.22705078 -5.54018555 47.22705078 -8.94018555 47.22705078 C-9.01419083 40.85500653 -9.06871887 34.48321089 -9.10498047 28.11083984 C-9.12009255 25.94185023 -9.1405829 23.77289128 -9.16650391 21.60400391 C-9.20278089 18.49129682 -9.21988744 15.37899273 -9.2331543 12.26611328 C-9.24863815 11.29211578 -9.26412201 10.31811829 -9.28007507 9.31460571 C-9.28030167 8.41382294 -9.28052826 7.51304016 -9.28076172 6.58496094 C-9.28742355 5.78998199 -9.29408539 4.99500305 -9.3009491 4.17593384 C-9.18189713 3.53280243 -9.06284515 2.88967102 -8.94018555 2.22705078 C-5.45355831 -0.09736737 -4.11440632 -0.01696662 0 0 Z " fill="#EFBF0F" transform="translate(163.940185546875,182.77294921875)"/>
<path d="M0 0 C7.60622012 -0.06959844 15.2124071 -0.12286116 22.81887341 -0.15543652 C26.35112466 -0.17107343 29.88315759 -0.19227501 33.4152832 -0.22631836 C37.47869937 -0.26523603 41.54188721 -0.27972547 45.60546875 -0.29296875 C46.8702153 -0.30845261 48.13496185 -0.32393646 49.43803406 -0.33988953 C50.61888077 -0.34011612 51.79972748 -0.34034271 53.01635742 -0.34057617 C54.05338303 -0.34723801 55.09040863 -0.35389984 56.15885925 -0.36076355 C59.51299206 0.06513892 61.37269273 0.87687696 64 3 C64.60127258 4.99320984 64.60127258 4.99320984 64.56762695 7.2878418 C64.5672493 8.14850754 64.56687164 9.00917328 64.56648254 9.8959198 C64.54067612 10.82100845 64.51486969 11.74609711 64.48828125 12.69921875 C64.48120651 13.64940384 64.47413177 14.59958893 64.46684265 15.5785675 C64.4388367 18.61567676 64.37608644 21.65094735 64.3125 24.6875 C64.28742516 26.7454161 64.26461058 28.80336107 64.24414062 30.86132812 C64.18898955 35.90826134 64.10267382 40.95381888 64 46 C60.7 46 57.4 46 54 46 C53.97421875 44.53046875 53.9484375 43.0609375 53.921875 41.546875 C53.8655938 39.61455364 53.80824646 37.68226312 53.75 35.75 C53.73582031 34.78191406 53.72164062 33.81382812 53.70703125 32.81640625 C53.67480469 31.88183594 53.64257812 30.94726562 53.609375 29.984375 C53.58842773 29.12553711 53.56748047 28.26669922 53.54589844 27.38183594 C52.75650224 23.93758312 51.99722218 22.94819442 49 21 C45.30202159 20.38255369 41.63324041 20.39499948 37.890625 20.390625 C36.80867859 20.37408875 35.72673218 20.35755249 34.61199951 20.34051514 C31.15794242 20.29194899 27.70432589 20.27064434 24.25 20.25 C21.90752982 20.22184764 19.56508023 20.19192126 17.22265625 20.16015625 C11.48185104 20.08618776 5.74117018 20.03459573 0 20 C0 17.36 0 14.72 0 12 C17.82 12 35.64 12 54 12 C53.505 10.515 53.505 10.515 53 9 C35.51 8.67 18.02 8.34 0 8 C0 5.36 0 2.72 0 0 Z " fill="#F9C809" transform="translate(37,183)"/>
<path d="M0 0 C0.66 0 1.32 0 2 0 C2 0.66 2 1.32 2 2 C27.08 2 52.16 2 78 2 C78 2.33 78 2.66 78 3 C77.09211227 3.01030746 76.18422455 3.02061493 75.24882507 3.03123474 C66.69961498 3.12914649 58.15047503 3.23165197 49.60138226 3.33933926 C45.20604141 3.39454183 40.81069388 3.44795761 36.4152832 3.49731445 C32.174769 3.54499728 27.93433577 3.59734157 23.69391823 3.65294075 C22.0747968 3.67334653 20.45565318 3.69206256 18.83649254 3.70907402 C16.571496 3.73315736 14.30665229 3.7632065 12.04174805 3.79467773 C10.75157272 3.81022202 9.4613974 3.8257663 8.13212585 3.84178162 C4.96948891 3.86130167 4.96948891 3.86130167 2 5 C1.67 27.11 1.34 49.22 1 72 C4.3 72 7.6 72 11 72 C10.98428955 70.62223389 10.9685791 69.24446777 10.95239258 67.82495117 C10.89815341 62.72051829 10.86367171 57.61611096 10.83520508 52.51147461 C10.82010475 50.30081908 10.79962291 48.09019357 10.77368164 45.87963867 C10.73735345 42.70484007 10.72028616 39.53043703 10.70703125 36.35546875 C10.69154739 35.36475876 10.67606354 34.37404877 10.66011047 33.35331726 C10.65988388 32.43258926 10.65965729 31.51186127 10.65942383 30.56323242 C10.65276199 29.7527092 10.64610016 28.94218597 10.63923645 28.10710144 C11 26 11 26 12.1328125 24.23608398 C14.85571985 22.43351077 16.96766798 22.64028095 20.21557617 22.65942383 C22.13722847 22.65976372 22.13722847 22.65976372 24.09770203 22.66011047 C25.49612781 22.67543043 26.89455004 22.69107842 28.29296875 22.70703125 C29.72357234 22.71262732 31.15418169 22.71689737 32.58479309 22.71989441 C36.34801132 22.73134244 40.11088156 22.76080885 43.8739624 22.79400635 C47.71475517 22.82470837 51.55560423 22.8384 55.39648438 22.85351562 C62.93114814 22.88567894 70.46552529 22.93687434 78 23 C78 23.99 78 24.98 78 26 C76.86034286 26.0154612 76.86034286 26.0154612 75.69766235 26.03123474 C68.54616045 26.12911217 61.394747 26.23161256 54.24338722 26.33933926 C50.56658571 26.39456189 46.88977624 26.44798081 43.21289062 26.49731445 C39.66614134 26.54496779 36.11948974 26.59731091 32.5728569 26.65294075 C31.2180664 26.67335992 29.86324912 26.69207374 28.50841141 26.70907402 C26.61443211 26.73312739 24.72053957 26.76374383 22.82666016 26.79467773 C21.20783432 26.81799416 21.20783432 26.81799416 19.55630493 26.84178162 C17.00983443 26.83212193 17.00983443 26.83212193 15 28 C14.67 42.52 14.34 57.04 14 72 C10.14259767 73.92870117 8.88370357 74.24283376 4.796875 74.1953125 C3.8171875 74.18886719 2.8375 74.18242187 1.828125 74.17578125 C0.81234375 74.15902344 -0.2034375 74.14226562 -1.25 74.125 C-2.28125 74.11597656 -3.3125 74.10695313 -4.375 74.09765625 C-6.91690287 74.07412011 -9.4583328 74.04124023 -12 74 C-12 73.34 -12 72.68 -12 72 C-8.7 72 -5.4 72 -2 72 C-2.00444122 71.14222458 -2.00888245 70.28444916 -2.01345825 69.40068054 C-2.05350917 61.32246406 -2.08397126 53.24428086 -2.10362434 45.16598797 C-2.11406779 41.01271522 -2.12823719 36.85952441 -2.15087891 32.70629883 C-2.17258734 28.69925441 -2.1845644 24.69228888 -2.18975449 20.6851902 C-2.19345384 19.15535045 -2.20067765 17.62551508 -2.21146011 16.09570885 C-2.22594863 13.95523067 -2.22797908 11.81507975 -2.22705078 9.67456055 C-2.231492 8.45544479 -2.23593323 7.23632904 -2.24050903 5.98027039 C-2 3 -2 3 0 0 Z " fill="#240E5D" transform="translate(141,157)"/>
<path d="M0 0 C9.5620114 -0.069544 19.1239356 -0.12283356 28.68614483 -0.15543652 C33.12638476 -0.17108517 37.56645152 -0.19230877 42.0065918 -0.22631836 C46.29246025 -0.25894044 50.57816224 -0.27685904 54.86414528 -0.28463173 C56.49840731 -0.29017013 58.13266035 -0.30098535 59.76685143 -0.31719017 C62.05790186 -0.33900272 64.34826654 -0.34196539 66.6394043 -0.34057617 C67.94290329 -0.34723801 69.24640228 -0.35389984 70.58940125 -0.36076355 C74.23086161 0.02441989 76.11001009 0.79557702 79 3 C80.4278535 5.85570699 80.11941486 8.27714356 80.11352539 11.46923828 C80.11367142 12.13277313 80.11381744 12.79630798 80.1139679 13.47994995 C80.11327031 15.67677053 80.10548514 17.8735067 80.09765625 20.0703125 C80.09579152 21.59203037 80.09436788 23.11374884 80.09336853 24.63546753 C80.08954767 28.64351047 80.07972104 32.65151726 80.06866455 36.6595459 C80.05844118 40.74828604 80.05386892 44.83703201 80.04882812 48.92578125 C80.0380984 56.95053744 80.02102713 64.97526422 80 73 C82.97 73 85.94 73 89 73 C89 73.33 89 73.66 89 74 C81.46818582 74.75667376 74.49719609 75.14364008 67 74 C67 73.67 67 73.34 67 73 C69.97 73 72.94 73 76 73 C75.89265392 64.28147377 75.78005269 55.56303614 75.66066074 46.84466648 C75.60539471 42.79678183 75.55196898 38.74889 75.50268555 34.70092773 C75.45509607 30.79757638 75.4027555 26.89431551 75.34705925 22.9910717 C75.32661106 21.49868955 75.30790213 20.00628257 75.29092598 18.51385689 C75.2669362 16.43045151 75.23687481 14.3472186 75.20532227 12.26391602 C75.18977798 11.07588882 75.1742337 9.88786163 75.15821838 8.66383362 C75.30051415 6.07920145 75.30051415 6.07920145 74 5 C71.70016978 4.87579266 69.39652614 4.82195547 67.09350586 4.79467773 C66.37159561 4.78477814 65.64968536 4.77487854 64.90589905 4.76467896 C62.50891449 4.73297701 60.11191008 4.70827241 57.71484375 4.68359375 C56.05716931 4.66303171 54.3995002 4.64203545 52.74183655 4.62062073 C48.37051705 4.5653225 43.99914963 4.51594756 39.62774658 4.46777344 C35.17040726 4.41761484 30.71313787 4.3618994 26.25585938 4.30664062 C17.5039653 4.19896432 8.75201288 4.09754055 0 4 C0 3.67 0 3.34 0 3 C23.76 3 47.52 3 72 3 C72 2.34 72 1.68 72 1 C48.24 1 24.48 1 0 1 C0 0.67 0 0.34 0 0 Z " fill="#361D53" transform="translate(37,156)"/>
<path d="M0 0 C0.33 0 0.66 0 1 0 C1 17.49 1 34.98 1 53 C2.65 53.66 4.3 54.32 6 55 C7.73124715 56.23241322 9.41855444 57.52833671 11.0625 58.875 C11.89910156 59.55304688 12.73570313 60.23109375 13.59765625 60.9296875 C15.82541293 62.84954285 17.92048751 64.92048751 20 67 C20.33 51.49 20.66 35.98 21 20 C33.54 20 46.08 20 59 20 C59.33 35.84 59.66 51.68 60 68 C59.34 68 58.68 68 58 68 C58 52.49 58 36.98 58 21 C46.12 21 34.24 21 22 21 C22.02320312 24.43019531 22.04640625 27.86039063 22.0703125 31.39453125 C22.08590262 34.71068959 22.09805102 38.02684388 22.10986328 41.34301758 C22.11993107 43.6506533 22.13358623 45.95827625 22.15087891 48.26586914 C22.17509287 51.57962191 22.18647526 54.89320626 22.1953125 58.20703125 C22.20563507 59.2414888 22.21595764 60.27594635 22.22659302 61.3417511 C22.22674408 62.3025206 22.22689514 63.2632901 22.22705078 64.25317383 C22.231492 65.09922684 22.23593323 65.94527985 22.24050903 66.81697083 C22 69 22 69 20 72 C19.44054687 71.38253906 18.88109375 70.76507813 18.3046875 70.12890625 C9.56103926 60.89325208 -0.45907459 54.34302102 -12 49 C-13.33521522 48.33711046 -14.66899967 47.6713124 -16 47 C-16 46.67 -16 46.34 -16 46 C-11.38 46 -6.76 46 -2 46 C-2 39.4 -2 32.8 -2 26 C-18.17 26 -34.34 26 -51 26 C-51 37.55 -51 49.1 -51 61 C-49.02 61 -47.04 61 -45 61 C-45 61.33 -45 61.66 -45 62 C-47.31 62 -49.62 62 -52 62 C-52 49.79 -52 37.58 -52 25 C-35.17 25 -18.34 25 -1 25 C-0.67 16.75 -0.34 8.5 0 0 Z " fill="#6155A0" transform="translate(88,27)"/>
<path d="M0 0 C1.24817001 -0.0127597 2.49634003 -0.02551941 3.78233337 -0.03866577 C5.14598435 -0.04172309 6.5096374 -0.04395103 7.87329102 -0.04541016 C9.27189776 -0.05183732 10.67050315 -0.05856562 12.06910706 -0.06558228 C15.00036741 -0.07755608 17.93150989 -0.08126297 20.86279297 -0.08007812 C24.6168632 -0.07987483 28.37017729 -0.10718624 32.12406826 -0.14162254 C35.01259322 -0.16387137 37.90093555 -0.16791632 40.78953743 -0.16685867 C42.17342805 -0.16921733 43.5573235 -0.17805592 44.94112968 -0.19352341 C46.87732051 -0.21314016 48.81373321 -0.20483391 50.75 -0.1953125 C51.85125717 -0.19816254 52.95251434 -0.20101257 54.08714294 -0.20394897 C57.65162939 0.41393729 58.82680902 1.38646724 60.93969727 4.29052734 C61.42071533 6.47991943 61.42071533 6.47991943 61.39379883 8.87548828 C61.3934967 9.77612 61.39319458 10.67675171 61.3928833 11.60467529 C61.37223816 12.56835022 61.35159302 13.53202515 61.33032227 14.52490234 C61.32466248 15.51806458 61.31900269 16.51122681 61.31317139 17.53448486 C61.29079753 20.70365794 61.24059832 23.87169654 61.18969727 27.04052734 C61.16963361 29.19025059 61.15138261 31.33999157 61.13500977 33.48974609 C61.09092966 38.75705963 61.0240076 44.02371244 60.93969727 49.29052734 C60.60969727 49.29052734 60.27969727 49.29052734 59.93969727 49.29052734 C59.60969727 34.77052734 59.27969727 20.25052734 58.93969727 5.29052734 C57.94969727 5.29052734 56.95969727 5.29052734 55.93969727 5.29052734 C54.94969727 4.96052734 53.95969727 4.63052734 52.93969727 4.29052734 C51.02315676 4.173928 49.10297573 4.11385986 47.18310547 4.08520508 C46.0021077 4.06525986 44.82110992 4.04531464 43.60432434 4.02476501 C42.32925522 4.00805252 41.0541861 3.99134003 39.74047852 3.97412109 C38.43515671 3.95334 37.1298349 3.9325589 35.78495789 3.91114807 C32.31787373 3.85600462 28.8507308 3.80656139 25.38354492 3.75830078 C21.84426657 3.70802924 18.30507337 3.65237271 14.76586914 3.59716797 C7.8238857 3.48968097 0.88182532 3.38821507 -6.06030273 3.29052734 C-6.06030273 5.93052734 -6.06030273 8.57052734 -6.06030273 11.29052734 C11.42969727 11.29052734 28.91969727 11.29052734 46.93969727 11.29052734 C47.43469727 13.27052734 47.43469727 13.27052734 47.93969727 15.29052734 C30.11969727 15.29052734 12.29969727 15.29052734 -6.06030273 15.29052734 C-6.06030273 17.93052734 -6.06030273 20.57052734 -6.06030273 23.29052734 C-6.39030273 23.29052734 -6.72030273 23.29052734 -7.06030273 23.29052734 C-7.72030273 16.36052734 -8.38030273 9.43052734 -9.06030273 2.29052734 C-5.563383 -0.04075248 -4.13574125 0.02865091 0 0 Z " fill="#412853" transform="translate(43.060302734375,179.70947265625)"/>
<path d="M0 0 C0.33 0.99 0.66 1.98 1 3 C-0.04783409 2.99880661 -0.04783409 2.99880661 -1.11683655 2.99758911 C-7.72255467 2.99537494 -14.32747031 3.02194091 -20.93294621 3.0802784 C-24.32844813 3.10926626 -27.72326325 3.12739252 -31.11889648 3.12011719 C-35.02895178 3.1122274 -38.93781346 3.15262072 -42.84765625 3.1953125 C-44.05833267 3.18621857 -45.26900909 3.17712463 -46.51637268 3.16775513 C-52.99561885 3.27890457 -57.07972378 3.70249784 -61.73582458 8.42282104 C-62.90785023 9.88503441 -63.9605161 11.44077415 -65 13 C-65.495 12.505 -65.495 12.505 -66 12 C-66.33 40.05 -66.66 68.1 -67 97 C-67.33 97 -67.66 97 -68 97 C-68.00586624 95.95874466 -68.01173248 94.91748932 -68.01777649 93.84468079 C-68.07499674 84.03041826 -68.14775478 74.21637746 -68.23571491 64.40234089 C-68.28043681 59.35686656 -68.319689 54.31147332 -68.34643555 49.26586914 C-68.37245027 44.39630281 -68.41283984 39.52704822 -68.46318626 34.65767479 C-68.47986735 32.80019191 -68.49137389 30.9426551 -68.49761391 29.0851078 C-68.50724149 26.48259448 -68.53528436 23.88088092 -68.56762695 21.27856445 C-68.56619186 20.5110788 -68.56475677 19.74359314 -68.5632782 18.95285034 C-68.66196514 13.33566098 -69.86885405 10.24570244 -73.69439697 6.21452332 C-77.02128027 4.46201983 -80.21732877 4.56053422 -83.88964844 4.56762695 C-84.68027176 4.5574353 -85.47089508 4.54724365 -86.28547668 4.53674316 C-88.89351473 4.50659746 -91.50118557 4.49734495 -94.109375 4.48828125 C-95.91971051 4.47143571 -97.73003432 4.45328564 -99.54034424 4.43388367 C-104.30125267 4.38636391 -109.06211364 4.35656734 -113.82318115 4.33044434 C-118.68299737 4.30064879 -123.54265003 4.254115 -128.40234375 4.20898438 C-137.93481032 4.12292879 -147.46731052 4.05559352 -157 4 C-157 3.67 -157 3.34 -157 3 C-156.19693955 2.99061433 -155.39387911 2.98122866 -154.5664835 2.97155857 C-135.05498219 2.7431821 -115.54355276 2.50938699 -96.03218937 2.26950932 C-86.59676617 2.15363945 -77.16132727 2.03962533 -67.72583008 1.92993164 C-59.50491597 1.8343536 -51.28405173 1.7353429 -43.0632295 1.63215441 C-38.70760953 1.57760365 -34.3519838 1.52480968 -29.99629402 1.4761219 C-25.90137962 1.43029494 -21.80654756 1.37989845 -17.71173286 1.32591057 C-16.20443274 1.30685907 -14.69710997 1.28951478 -13.18976974 1.2739563 C-11.14066684 1.25255714 -9.09163583 1.22456787 -7.0426178 1.19618225 C-5.89314195 1.18235536 -4.7436661 1.16852846 -3.55935764 1.15428257 C-1.06689556 1.28798793 -1.06689556 1.28798793 0 0 Z " fill="#1E0964" transform="translate(194,132)"/>
<path d="M0 0 C0.66 0 1.32 0 2 0 C2 0.66 2 1.32 2 2 C27.08 2 52.16 2 78 2 C78 2.33 78 2.66 78 3 C77.09211227 3.01030746 76.18422455 3.02061493 75.24882507 3.03123474 C66.69961498 3.12914649 58.15047503 3.23165197 49.60138226 3.33933926 C45.20604141 3.39454183 40.81069388 3.44795761 36.4152832 3.49731445 C32.174769 3.54499728 27.93433577 3.59734157 23.69391823 3.65294075 C22.0747968 3.67334653 20.45565318 3.69206256 18.83649254 3.70907402 C16.571496 3.73315736 14.30665229 3.7632065 12.04174805 3.79467773 C10.75157272 3.81022202 9.4613974 3.8257663 8.13212585 3.84178162 C4.96948891 3.86130167 4.96948891 3.86130167 2 5 C1.67 27.44 1.34 49.88 1 73 C-1.64458379 74.32229189 -3.67761301 74.09677194 -6.625 74.0625 C-7.62789062 74.05347656 -8.63078125 74.04445313 -9.6640625 74.03515625 C-10.43492187 74.02355469 -11.20578125 74.01195312 -12 74 C-12 73.34 -12 72.68 -12 72 C-8.7 72 -5.4 72 -2 72 C-2.00444122 71.14222458 -2.00888245 70.28444916 -2.01345825 69.40068054 C-2.05350917 61.32246406 -2.08397126 53.24428086 -2.10362434 45.16598797 C-2.11406779 41.01271522 -2.12823719 36.85952441 -2.15087891 32.70629883 C-2.17258734 28.69925441 -2.1845644 24.69228888 -2.18975449 20.6851902 C-2.19345384 19.15535045 -2.20067765 17.62551508 -2.21146011 16.09570885 C-2.22594863 13.95523067 -2.22797908 11.81507975 -2.22705078 9.67456055 C-2.231492 8.45544479 -2.23593323 7.23632904 -2.24050903 5.98027039 C-2 3 -2 3 0 0 Z " fill="#1D0966" transform="translate(141,157)"/>
<path d="M0 0 C0.66 0 1.32 0 2 0 C2 2.64 2 5.28 2 8 C23.78 8 45.56 8 68 8 C68.495 9.485 68.495 9.485 69 11 C46.89 11 24.78 11 2 11 C2 13.97 2 16.94 2 20 C1.67 20 1.34 20 1 20 C1 16.37 1 12.74 1 9 C0.34 9 -0.32 9 -1 9 C-0.67 6.03 -0.34 3.06 0 0 Z " fill="#1B0762" transform="translate(35,160)"/>
<path d="M0 0 C0.33 0 0.66 0 1 0 C1 22.44 1 44.88 1 68 C3.97 68 6.94 68 10 68 C10 68.33 10 68.66 10 69 C2.46818582 69.75667376 -4.50280391 70.14364008 -12 69 C-12 68.67 -12 68.34 -12 68 C-9.03 68 -6.06 68 -3 68 C-3 46.55 -3 25.1 -3 3 C-2.67 3 -2.34 3 -2 3 C-1.67 22.14 -1.34 41.28 -1 61 C-0.67 40.87 -0.34 20.74 0 0 Z " fill="#614446" transform="translate(116,161)"/>
<path d="M0 0 C17.82 0 35.64 0 54 0 C54 0.99 54 1.98 54 3 C36.18 3 18.36 3 0 3 C0 2.01 0 1.02 0 0 Z " fill="#331C5C" transform="translate(165,192)"/>
<path d="M0 0 C0.66 0 1.32 0 2 0 C2 0.66 2 1.32 2 2 C27.08 2 52.16 2 78 2 C78 2.33 78 2.66 78 3 C77.0965535 3.01030746 76.19310699 3.02061493 75.26228333 3.03123474 C66.74313001 3.12926145 58.22404515 3.23178327 49.7050066 3.33933926 C45.32541682 3.39447502 40.94582025 3.44787988 36.56616211 3.49731445 C32.33860787 3.54509611 28.11113246 3.59744354 23.88367271 3.65294075 C22.27178603 3.67330188 20.65987778 3.69202506 19.04795265 3.70907402 C16.7881556 3.73325671 14.52850574 3.76329159 12.26879883 3.79467773 C10.34019768 3.81799416 10.34019768 3.81799416 8.37263489 3.84178162 C4.70289331 3.92946482 4.70289331 3.92946482 0 5 C-0.33 27.11 -0.66 49.22 -1 72 C-1.33 72 -1.66 72 -2 72 C-2.04631189 63.05534682 -2.08186333 54.11073482 -2.10362434 45.16598797 C-2.11406779 41.01271522 -2.12823719 36.85952441 -2.15087891 32.70629883 C-2.17258734 28.69925441 -2.1845644 24.69228888 -2.18975449 20.6851902 C-2.19345384 19.15535045 -2.20067765 17.62551508 -2.21146011 16.09570885 C-2.22594863 13.95523067 -2.22797908 11.81507975 -2.22705078 9.67456055 C-2.231492 8.45544479 -2.23593323 7.23632904 -2.24050903 5.98027039 C-2 3 -2 3 0 0 Z " fill="#3B1F46" transform="translate(141,157)"/>
<path d="M0 0 C12.54 0 25.08 0 38 0 C38.33 15.84 38.66 31.68 39 48 C38.34 48 37.68 48 37 48 C37 32.49 37 16.98 37 1 C25.12 1 13.24 1 1 1 C1.02320312 4.43019531 1.04640625 7.86039063 1.0703125 11.39453125 C1.08590262 14.71068959 1.09805102 18.02684388 1.10986328 21.34301758 C1.11993107 23.6506533 1.13358623 25.95827625 1.15087891 28.26586914 C1.17509287 31.57962191 1.18647526 34.89320626 1.1953125 38.20703125 C1.20563507 39.2414888 1.21595764 40.27594635 1.22659302 41.3417511 C1.22674408 42.3025206 1.22689514 43.2632901 1.22705078 44.25317383 C1.231492 45.09922684 1.23593323 45.94527985 1.24050903 46.81697083 C1 49 1 49 -1 52 C-1.66 51.34 -2.32 50.68 -3 50 C-3 49.01 -3 48.02 -3 47 C-2.34 47 -1.68 47 -1 47 C-0.67 31.49 -0.34 15.98 0 0 Z " fill="#60569B" transform="translate(109,47)"/>
<path d="M0 0 C5.28 0 10.56 0 16 0 C13.50548468 1.66301021 11.19138865 2.90734273 8.5 4.1875 C-2.04392171 9.45180924 -10.5515184 15.87834554 -19 24 C-19.99 23.34 -20.98 22.68 -22 22 C-21.34 22 -20.68 22 -20 22 C-19.77957031 21.43410156 -19.55914062 20.86820313 -19.33203125 20.28515625 C-17.58235759 17.28351669 -15.39596509 15.60353906 -12.6875 13.4375 C-11.74261719 12.67308594 -10.79773438 11.90867187 -9.82421875 11.12109375 C-3.00552486 6 -3.00552486 6 0 6 C0 4.02 0 2.04 0 0 Z " fill="#20107C" transform="translate(168,73)"/>
<path d="M0 0 C8.14503822 -0.09270775 16.28985577 -0.16376823 24.43529129 -0.20724869 C28.21762995 -0.22811795 31.99960747 -0.25642248 35.78173828 -0.30175781 C39.43220312 -0.34524074 43.08232076 -0.36914209 46.7330246 -0.37950897 C48.12531754 -0.3868961 49.51759162 -0.40132175 50.90973663 -0.42292023 C52.86053411 -0.45198041 54.81168146 -0.45363412 56.76269531 -0.45410156 C58.42815399 -0.46742523 58.42815399 -0.46742523 60.1272583 -0.48101807 C63.71275103 0.11934457 64.88078296 1.07938642 67 4 C67.48101807 6.18939209 67.48101807 6.18939209 67.45410156 8.58496094 C67.45379944 9.48559265 67.45349731 10.38622437 67.45318604 11.31414795 C67.43254089 12.27782288 67.41189575 13.2414978 67.390625 14.234375 C67.38496521 15.22753723 67.37930542 16.22069946 67.37347412 17.24395752 C67.35110026 20.41313059 67.30090106 23.5811692 67.25 26.75 C67.22993635 28.89972324 67.21168534 31.04946423 67.1953125 33.19921875 C67.15123239 38.46653229 67.08431033 43.73318509 67 49 C66.67 49 66.34 49 66 49 C65.67 34.48 65.34 19.96 65 5 C64.01 5 63.02 5 62 5 C60.31763529 4.37400383 58.6476038 3.71247732 57 3 C57 2.67 57 2.34 57 2 C38.19 1.67 19.38 1.34 0 1 C0 0.67 0 0.34 0 0 Z " fill="#361E49" transform="translate(37,180)"/>
<path d="M0 0 C1.32 0.66 2.64 1.32 4 2 C4 16.19 4 30.38 4 45 C0.7 45 -2.6 45 -6 45 C-6.33 37.41 -6.66 29.82 -7 22 C-6.34 22.33 -5.68 22.66 -5 23 C-5 29.93 -5 36.86 -5 44 C-2.69 44 -0.38 44 2 44 C1.88181469 38.21576004 1.7575706 32.43169417 1.62768555 26.64770508 C1.58434759 24.67964221 1.54267168 22.71154202 1.50268555 20.7434082 C1.44495555 17.9160639 1.38126884 15.08890729 1.31640625 12.26171875 C1.29969376 11.38037766 1.28298126 10.49903656 1.26576233 9.59098816 C1.24581711 8.77036392 1.22587189 7.94973969 1.20532227 7.10424805 C1.18977798 6.38254929 1.1742337 5.66085052 1.15821838 4.9172821 C1.05804743 2.77891856 1.05804743 2.77891856 0 0 Z " fill="#C69B2E" transform="translate(97,184)"/>
<path d="M0 0 C0.66 0 1.32 0 2 0 C2 2.64 2 5.28 2 8 C23.78 8 45.56 8 68 8 C68 8.33 68 8.66 68 9 C46.22 9.33 24.44 9.66 2 10 C2 13.3 2 16.6 2 20 C1.67 20 1.34 20 1 20 C1 16.37 1 12.74 1 9 C0.34 9 -0.32 9 -1 9 C-0.67 6.03 -0.34 3.06 0 0 Z " fill="#462A48" transform="translate(35,160)"/>
<path d="M0 0 C0.99 0.33 1.98 0.66 3 1 C3 1.66 3 2.32 3 3 C1.34229079 4.33619621 -0.37852016 5.59462139 -2.125 6.8125 C-6.24328031 9.72983663 -10.18448497 12.70009511 -14 16 C-14.66 15.34 -15.32 14.68 -16 14 C-15.34 14 -14.68 14 -14 14 C-13.78472656 13.43667969 -13.56945312 12.87335938 -13.34765625 12.29296875 C-11.54288781 9.22224679 -9.22646735 7.51240254 -6.4375 5.3125 C-5.44621094 4.52488281 -4.45492187 3.73726563 -3.43359375 2.92578125 C-2.22896484 1.97251953 -2.22896484 1.97251953 -1 1 C-0.67 0.67 -0.34 0.34 0 0 Z " fill="#382B83" transform="translate(162,81)"/>
<path d="M0 0 C3.23861303 1.44424635 5.61969163 3.25772247 8.25 5.625 C8.95640625 6.25664063 9.6628125 6.88828125 10.390625 7.5390625 C10.92171875 8.02117187 11.4528125 8.50328125 12 9 C11.01 10.485 11.01 10.485 10 12 C6.33333333 8.33333333 2.66666667 4.66666667 -1 1 C-0.67 0.67 -0.34 0.34 0 0 Z " fill="#3A2D84" transform="translate(95,84)"/>
<path d="M0 0 C0.66 0.33 1.32 0.66 2 1 C-10.84466019 10 -10.84466019 10 -17 10 C-13.46638675 7.00198062 -9.95410384 4.76087434 -5.8125 2.6875 C-4.76707031 2.15511719 -3.72164062 1.62273438 -2.64453125 1.07421875 C-1.77183594 0.71972656 -0.89914063 0.36523438 0 0 Z " fill="#51364F" transform="translate(56,15)"/>
<path d="M0 0 C0.33 0 0.66 0 1 0 C1.3192654 5.32109006 0.57401695 8.36676949 -2 13 C-2.68636625 15.23525035 -2.68636625 15.23525035 -3 17 C-3.66 17 -4.32 17 -5 17 C-4.46246904 10.81839396 -2.45417612 5.673142 0 0 Z " fill="#E4C642" transform="translate(10,44)"/>
<path d="M0 0 C0 3.91535091 -1.21206024 4.59834039 -3.875 7.375 C-6.82577655 10.45269167 -8.63746569 12.94108201 -10 17 C-10.99 17 -11.98 17 -13 17 C-11.46203092 13.56546802 -9.4264398 10.85610724 -7.0625 7.9375 C-6.37285156 7.08027344 -5.68320312 6.22304688 -4.97265625 5.33984375 C-3.38385308 3.45530297 -1.77941245 1.70131911 0 0 Z " fill="#E7C838" transform="translate(27,22)"/>
<path d="M0 0 C0.99 0 1.98 0 3 0 C3.88826175 7.18808741 4.01202288 13.82242235 3 21 C2.67 21 2.34 21 2 21 C1.34 14.07 0.68 7.14 0 0 Z " fill="#3E2555" transform="translate(34,182)"/>
<path d="M0 0 C0.66 0 1.32 0 2 0 C2 2.97 2 5.94 2 9 C2.66 9.33 3.32 9.66 4 10 C3.34 10 2.68 10 2 10 C2 13.3 2 16.6 2 20 C1.67 20 1.34 20 1 20 C1 16.37 1 12.74 1 9 C0.34 9 -0.32 9 -1 9 C-0.67 6.03 -0.34 3.06 0 0 Z " fill="#3D2655" transform="translate(35,160)"/>
<path d="M0 0 C4.75 0.875 4.75 0.875 7 2 C6.67 3.65 6.34 5.3 6 7 C5.34 7 4.68 7 4 7 C0 2.52941176 0 2.52941176 0 0 Z " fill="#210C64" transform="translate(109,157)"/>
<path d="M0 0 C0.33 0.99 0.66 1.98 1 3 C-1.31 5.31 -3.62 7.62 -6 10 C-6.99 9.34 -7.98 8.68 -9 8 C-8.34 8 -7.68 8 -7 8 C-6.773125 7.4225 -6.54625 6.845 -6.3125 6.25 C-4.66961977 3.4336339 -2.60466773 1.91922886 0 0 Z " fill="#2E207D" transform="translate(155,87)"/>
<path d="M0 0 C0.66 0.33 1.32 0.66 2 1 C0.76110404 2.48847937 -0.4915672 3.96550105 -1.75 5.4375 C-2.79414062 6.67306641 -2.79414062 6.67306641 -3.859375 7.93359375 C-6.01343015 10.01296451 -7.08310781 10.63867326 -10 11 C-6.79239749 7.19364503 -3.59253891 3.45436433 0 0 Z " fill="#331B59" transform="translate(37,26)"/>
<path d="M0 0 C-0.99 0 -1.98 0 -3 0 C-3 0.66 -3 1.32 -3 2 C-11.03571429 4.27678571 -11.03571429 4.27678571 -15 3 C-13.25531628 2.29911844 -11.50398839 1.61475991 -9.75 0.9375 C-8.77546875 0.55464844 -7.8009375 0.17179688 -6.796875 -0.22265625 C-3.95992605 -1.01113787 -2.70590448 -1.02437812 0 0 Z " fill="#EAC635" transform="translate(62,6)"/>
<path d="M0 0 C1.33897583 0.95043374 2.67105427 1.91059147 4 2.875 C5.11375 3.67550781 5.11375 3.67550781 6.25 4.4921875 C6.8275 4.98976563 7.405 5.48734375 8 6 C8 6.66 8 7.32 8 8 C4.51460083 7.35455571 1.97180943 5.89865603 -1 4 C-0.67 2.68 -0.34 1.36 0 0 Z " fill="#2E217E" transform="translate(87,77)"/>
<path d="M0 0 C0.66 0 1.32 0 2 0 C2.33 1.32 2.66 2.64 3 4 C2.01 4.33 1.02 4.66 0 5 C-0.33 8.63 -0.66 12.26 -1 16 C-1.33 16 -1.66 16 -2 16 C-2.05402274 13.89611431 -2.09280256 11.79183286 -2.125 9.6875 C-2.14820313 8.51574219 -2.17140625 7.34398437 -2.1953125 6.13671875 C-2 3 -2 3 0 0 Z " fill="#391E50" transform="translate(141,157)"/>
<path d="M0 0 C0.66 0.33 1.32 0.66 2 1 C-2.18461538 6.78461538 -2.18461538 6.78461538 -6.3125 7.875 C-7.6428125 7.936875 -7.6428125 7.936875 -9 8 C-6.17493137 5.0702992 -3.21203935 2.49825283 0 0 Z " fill="#D0A628" transform="translate(220,228)"/>
<path d="M0 0 C0.66 0 1.32 0 2 0 C1.57405412 1.44096586 1.13373367 2.87768712 0.6875 4.3125 C0.44386719 5.11300781 0.20023438 5.91351563 -0.05078125 6.73828125 C-1.04182023 9.09964573 -2.08074943 10.33879993 -4 12 C-3.45660208 7.43545749 -2.20536179 4.0271824 0 0 Z " fill="#ECC836" transform="translate(246,205)"/>
<path d="M0 0 C0 0.99 0 1.98 0 3 C-3.20395416 3 -5.09399739 2.25664978 -8 1 C-4.93251126 -0.86240388 -3.40254489 -1.2151946 0 0 Z " fill="#230F5F" transform="translate(102,182)"/>
<path d="M0 0 C3.74281699 2.38179263 6.97727468 4.74475735 10 8 C7.03 7.505 7.03 7.505 4 7 C4 6.01 4 5.02 4 4 C2.68 3.34 1.36 2.68 0 2 C0 1.34 0 0.68 0 0 Z " fill="#E5C12E" transform="translate(219,15)"/>
<path d="M0 0 C2.01920337 1.30406884 4.01924973 2.63823419 6 4 C6 4.33 6 4.66 6 5 C3.69 5 1.38 5 -1 5 C-0.67 3.35 -0.34 1.7 0 0 Z " fill="#23147D" transform="translate(86,107)"/>
<path d="M0 0 C0.66 0 1.32 0 2 0 C2.33 0.99 2.66 1.98 3 3 C1 5 1 5 -1.3828125 5.1953125 C-2.28773437 5.17210937 -3.19265625 5.14890625 -4.125 5.125 C-5.49011719 5.09792969 -5.49011719 5.09792969 -6.8828125 5.0703125 C-7.58148438 5.04710937 -8.28015625 5.02390625 -9 5 C-9 4.67 -9 4.34 -9 4 C-6.03 4 -3.06 4 0 4 C0 2.68 0 1.36 0 0 Z " fill="#EEC011" transform="translate(116,145)"/>
<path d="M0 0 C0.66 0.33 1.32 0.66 2 1 C1.67 1.99 1.34 2.98 1 4 C-1.5625 5.1875 -1.5625 5.1875 -4 6 C-4 5.01 -4 4.02 -4 3 C-2 1.3125 -2 1.3125 0 0 Z " fill="#28197D" transform="translate(169,77)"/>
<path d="M0 0 C0.6875 1.75 0.6875 1.75 1 4 C-0.3125 6.25 -0.3125 6.25 -2 8 C-2.66 8 -3.32 8 -4 8 C-2.25 2.25 -2.25 2.25 0 0 Z " fill="#492D52" transform="translate(21,45)"/>
<path d="M0 0 C1.65 0 3.3 0 5 0 C0.25 4.875 0.25 4.875 -2 6 C-1.34 4.02 -0.68 2.04 0 0 Z " fill="#F0C528" transform="translate(225,232)"/>
</svg>
