<svg width="512" height="512" viewBox="0 0 512 512" fill="none" xmlns="http://www.w3.org/2000/svg">
  <rect width="512" height="512" rx="128" fill="url(#gradient)"/>
  <defs>
    <linearGradient id="gradient" x1="0" y1="0" x2="512" y2="512" gradientUnits="userSpaceOnUse">
      <stop offset="0%" stop-color="#3b82f6"/>
      <stop offset="50%" stop-color="#8b5cf6"/>
      <stop offset="100%" stop-color="#06b6d4"/>
    </linearGradient>
  </defs>
  
  <!-- Chat bubble -->
  <path d="M128 160C128 142.327 142.327 128 160 128H352C369.673 128 384 142.327 384 160V288C384 305.673 369.673 320 352 320H224L160 368V320C142.327 320 128 305.673 128 288V160Z" fill="white" opacity="0.95"/>
  
  <!-- Sparkles -->
  <circle cx="200" cy="200" r="8" fill="#3b82f6"/>
  <circle cx="256" cy="180" r="10" fill="#8b5cf6"/>
  <circle cx="312" cy="200" r="8" fill="#06b6d4"/>
  
  <!-- Text lines -->
  <rect x="160" y="220" width="120" height="8" rx="4" fill="#3b82f6" opacity="0.6"/>
  <rect x="160" y="240" width="160" height="8" rx="4" fill="#3b82f6" opacity="0.4"/>
  <rect x="160" y="260" width="100" height="8" rx="4" fill="#3b82f6" opacity="0.3"/>
</svg>

